<svg width="90" height="90" viewBox="0 0 90 90" fill="none" xmlns="http://www.w3.org/2000/svg">
<path opacity="0.6" d="M12.0753 86.0907H20.7493V84.7349L20.645 84.5958L20.7493 84.5437V64.3274H12.0753V86.0907Z" fill="#34A853"/>
<path d="M75.8181 67.8388L75.7833 67.8562L64.6235 73.5056C64.7626 74.114 64.8147 74.7397 64.8147 75.3655V76.6866H46.8062V74.027H61.9987C61.3729 71.1763 58.8524 69.1425 55.9321 69.1425H45.798C43.7815 69.1425 41.7999 68.6905 39.9747 67.8214L38.9317 67.3173C33.9255 64.8837 27.9806 65.3183 23.3915 68.4819V83.0313L24.7821 82.2317C26.503 81.2409 28.5542 80.9628 30.4837 81.4495L47.797 85.8126C51.0997 86.3862 54.5067 85.9169 57.5313 84.4567L80.8243 68.4645C79.4685 67.1956 77.452 66.9522 75.8181 67.8388ZM36.6546 36.5149C38.671 35.611 40.8265 35.0722 43.0341 34.9157V31.5782H35.855C35.9419 33.247 36.22 34.8983 36.6546 36.5149ZM43.0515 45.554V37.5927C41.1567 37.7491 39.2968 38.2358 37.5759 39.0354C38.8274 41.7819 40.67 44.0417 43.0515 45.554ZM35.8724 28.936H43.0515V25.5985C40.8438 25.4421 38.6884 24.9032 36.672 23.9993C36.22 25.6159 35.9419 27.2673 35.8724 28.936ZM55.3063 18.628C53.8636 17.2722 52.1948 16.1944 50.3522 15.447C51.6212 16.8376 52.6642 18.4194 53.4638 20.123C54.1243 19.671 54.7327 19.1669 55.3063 18.628ZM43.0515 22.939V14.9776C40.6874 16.4899 38.8274 18.7497 37.5759 21.5136C39.3142 22.2958 41.1567 22.7651 43.0515 22.939ZM38.3929 15.4644C36.5329 16.2118 34.8468 17.3069 33.3866 18.6802C33.9603 19.219 34.586 19.7231 35.2466 20.1751C36.0462 18.4542 37.1065 16.855 38.3929 15.4644ZM34.2731 22.713C33.3171 22.1046 32.4306 21.4267 31.6136 20.6444C29.8058 23.0606 28.7106 25.9288 28.4499 28.9187H33.2128C33.2997 26.8153 33.6474 24.7294 34.2731 22.713ZM33.3866 41.8341C34.8294 43.2073 36.5329 44.3024 38.3929 45.0499C37.1065 43.6419 36.0462 42.0427 35.264 40.3044C34.6034 40.7911 33.9776 41.2952 33.3866 41.8341ZM34.2731 37.8013C33.6474 35.7849 33.2823 33.6989 33.1954 31.5782H28.4499C28.6933 34.5854 29.7884 37.4536 31.6136 39.8524C32.448 39.105 33.3345 38.4097 34.2731 37.8013ZM54.4546 37.836C55.3933 38.4444 56.2798 39.1397 57.0968 39.9046C58.9394 37.4884 60.0519 34.6028 60.2952 31.5608H55.5323C55.4454 33.6989 55.0804 35.8022 54.4546 37.836ZM45.6937 14.9603V22.9216C47.5884 22.7651 49.431 22.2784 51.1519 21.4614C49.9351 18.7149 48.0751 16.4726 45.6937 14.9603ZM50.3696 45.0499C52.1948 44.3024 53.881 43.2247 55.3237 41.8688C54.7501 41.3126 54.1417 40.8085 53.4812 40.3739C52.6815 42.0948 51.6386 43.6767 50.3696 45.0499Z" fill="#34A853"/>
<path opacity="0.6" d="M20.7841 26.9718C20.4538 29.4923 20.5233 32.0649 20.9753 34.5681C21.0622 35.0026 20.9058 35.4546 20.5929 35.7675L17.8812 38.3575L20.5233 44.3894L24.278 44.1112C24.73 44.0765 25.1646 44.2851 25.4427 44.6501C26.955 46.6839 28.7976 48.4569 30.9009 49.8649C31.2833 50.1083 31.5093 50.5429 31.4919 50.9948L31.3702 54.7495L37.489 57.1136L39.9226 54.3149C40.2181 53.9673 40.6526 53.8108 41.1046 53.863C43.6251 54.1933 46.1978 54.1237 48.7009 53.6718C49.1354 53.5849 49.5874 53.7413 49.9003 54.0542L52.4903 56.7659L58.5222 54.1237L58.244 50.369C58.2093 49.9171 58.4179 49.4825 58.7829 49.2044C60.8167 47.6921 62.5897 45.8495 63.9978 43.7462C64.2411 43.3638 64.6757 43.1378 65.1276 43.1552L68.8823 43.2769L71.2464 37.1581L68.4478 34.7245C68.1001 34.429 67.9436 33.9944 67.9958 33.5425C68.3261 31.022 68.2565 28.4493 67.8046 25.9462C67.7177 25.5116 67.8741 25.0597 68.187 24.7468L70.8987 22.1567L68.2565 16.1249L64.5019 16.403C64.0499 16.4378 63.6153 16.2292 63.3372 15.8642C61.8249 13.8304 59.9823 12.0573 57.879 10.6493C57.4966 10.406 57.2706 9.97139 57.288 9.51943L57.4097 5.76475L51.2909 3.40068L48.8573 6.19932C48.5618 6.54697 48.1272 6.70342 47.6753 6.65127C45.1548 6.321 42.5821 6.39053 40.079 6.84248C39.6444 6.9294 39.1925 6.77295 38.8796 6.46006L36.2895 3.74834L30.2577 6.39053L30.5358 10.1452C30.5706 10.5972 30.362 11.0317 29.997 11.3099C27.9632 12.8222 26.1901 14.6647 24.7821 16.7681C24.5388 17.1505 24.1042 17.3765 23.6522 17.3591L19.8976 17.2374L17.5335 23.3562L20.3321 25.7897C20.6624 26.0853 20.8362 26.5372 20.7841 26.9718ZM44.3726 11.6228C54.6632 11.6228 63.0069 19.9665 63.0069 30.2571C63.0069 40.5478 54.6632 48.8915 44.3726 48.8915C34.0819 48.8915 25.7382 40.5478 25.7382 30.2571C25.7556 19.9665 34.0819 11.6401 44.3726 11.6228Z" fill="#34A853"/>
<path d="M55.5323 28.936H60.2952C60.0345 25.9114 58.9394 23.0085 57.0968 20.5923C56.2798 21.3571 55.3933 22.0524 54.4546 22.6608C55.0804 24.6946 55.4454 26.7979 55.5323 28.936ZM52.0731 23.9819C50.0567 24.9032 47.9013 25.4421 45.711 25.5985V28.936H52.8901C52.8032 27.2499 52.5251 25.5985 52.0731 23.9819ZM51.1519 39.0528C49.431 38.2358 47.5884 37.7491 45.6937 37.5927V45.554C48.0751 44.0417 49.9351 41.7993 51.1519 39.0528ZM52.8901 31.5782H45.711V34.9157C47.9187 35.0722 50.0741 35.611 52.0731 36.5323C52.5251 34.9157 52.8032 33.2644 52.8901 31.5782Z" fill="#34A853"/>
</svg>
