<svg width="78" height="77" viewBox="0 0 78 77" fill="none" xmlns="http://www.w3.org/2000/svg">
<path opacity="0.6" fill-rule="evenodd" clip-rule="evenodd" d="M11.4115 38.5742L3.51602 38.7227C2.9295 38.7375 2.43321 38.4406 2.1625 37.9359C1.8918 37.4312 1.93692 36.8523 2.26778 36.3773L16.1488 17.2883C16.5098 16.7836 17.1113 16.5609 17.7129 16.7094L28.3606 19.218C26.8416 20.5391 25.3678 21.9047 23.9391 23.3148C19.6379 27.5602 15.7277 32.2062 12.344 37.1937L11.4115 38.5742Z" fill="#4285F4"/>
<path opacity="0.6" fill-rule="evenodd" clip-rule="evenodd" d="M8.99024 57.1883C9.47149 56.7281 10.2234 56.743 10.6897 57.2031C11.1408 57.6633 11.1408 58.3906 10.6897 58.8508L6.19298 63.2891C5.71173 63.7492 4.95977 63.7344 4.49356 63.2594C4.04239 62.7992 4.04239 62.0719 4.49356 61.6117L8.99024 57.1883Z" fill="#4285F4"/>
<path opacity="0.6" fill-rule="evenodd" clip-rule="evenodd" d="M17.9234 66.0055C18.4047 65.5453 19.1566 65.5602 19.6229 66.0352C20.074 66.4953 20.074 67.2227 19.6229 67.6828L15.1262 72.1211C14.6449 72.5812 13.893 72.5664 13.4268 72.0914C12.9756 71.6312 12.9756 70.9039 13.4268 70.4438L17.9234 66.0055Z" fill="#4285F4"/>
<path opacity="0.6" fill-rule="evenodd" clip-rule="evenodd" d="M13.4568 61.582L4.97481 69.9539C4.5086 70.4141 4.5086 71.1711 4.97481 71.6312C5.44102 72.0914 6.20801 72.0914 6.67422 71.6312L15.1563 63.2594C15.6225 62.7992 15.6225 62.0422 15.1563 61.582C14.675 61.1219 13.9231 61.1219 13.4568 61.582Z" fill="#4285F4"/>
<path fill-rule="evenodd" clip-rule="evenodd" d="M14.3441 38.5148L38.527 62.3836C40.3016 61.2109 42.0311 59.9641 43.7154 58.6727L18.1039 33.3937C16.7955 35.0562 15.5322 36.7633 14.3441 38.5148Z" fill="#4285F4"/>
<path fill-rule="evenodd" clip-rule="evenodd" d="M75.0418 2.47422C60.108 1.56875 41.1889 9.64375 25.6385 24.9922C23.533 27.0703 21.5178 29.2523 19.6228 31.5234L45.6103 57.1734C47.9113 55.3031 50.1221 53.3141 52.2275 51.2359C67.7779 35.8875 75.9441 17.2141 75.0418 2.47422ZM58.935 31.1078C55.3707 34.6258 49.5957 34.6258 46.0314 31.1078C42.4672 27.5898 42.4672 21.8898 46.0314 18.3719C49.5957 14.8539 55.3707 14.8539 58.935 18.3719C62.4992 21.8898 62.4992 27.5898 58.935 31.1078Z" fill="#4285F4"/>
<path opacity="0.6" fill-rule="evenodd" clip-rule="evenodd" d="M57.1453 20.1383C59.717 22.6766 59.717 26.7883 57.1453 29.3266C54.5736 31.8648 50.4078 31.8648 47.8361 29.3266C45.2645 26.7883 45.2645 22.6766 47.8361 20.1383C50.3928 17.6 54.5736 17.6 57.1453 20.1383Z" fill="#4285F4"/>
<path fill-rule="evenodd" clip-rule="evenodd" d="M32.2707 59.5781L27.383 64.4023C26.7965 64.9813 25.849 64.9813 25.2625 64.4023L12.3139 51.6219C11.7273 51.043 11.7273 50.1078 12.3139 49.5289L17.2016 44.7047L32.2707 59.5781Z" fill="#4285F4"/>
<path opacity="0.6" fill-rule="evenodd" clip-rule="evenodd" d="M38.4668 65.2781L39.8654 64.3578C44.9186 61.018 49.6258 57.1586 53.927 52.9133C55.3557 51.5031 56.7393 50.0484 58.0777 48.5492L60.6193 59.0586C60.7697 59.6523 60.5441 60.2461 60.0328 60.6023L40.6926 74.3031C40.2113 74.6445 39.6398 74.6742 39.1135 74.407C38.5871 74.1398 38.3014 73.6352 38.3164 73.0711L38.4668 65.2781Z" fill="#4285F4"/>
</svg>
