<svg width="73" height="73" viewBox="0 0 73 73" fill="none" xmlns="http://www.w3.org/2000/svg">
<circle cx="36.5" cy="36.0649" r="36" fill="#F7F7F7"/>
<g clip-path="url(#clip0_62_53)">
<path d="M44.5 40.5449C42.964 40.5449 41.588 41.2809 40.724 42.4009L32.948 37.8889C33.428 36.7049 33.428 35.3929 32.948 34.2089L40.724 29.6969C41.588 30.8169 42.964 31.5529 44.5 31.5529C47.156 31.5529 49.3 29.4089 49.3 26.7529C49.3 24.0969 47.156 21.9529 44.5 21.9529C41.844 21.9529 39.7 24.0969 39.7 26.7529C39.7 27.3929 39.828 28.0329 40.052 28.5769L32.276 33.1209C31.38 32.0009 30.036 31.2649 28.5 31.2649C25.844 31.2649 23.7 33.4089 23.7 36.0649C23.7 38.7209 25.844 40.8649 28.5 40.8649C30.036 40.8649 31.412 40.1289 32.276 39.0089L40.052 43.5209C39.828 44.0649 39.7 44.7049 39.7 45.3449C39.7 48.0009 41.844 50.1449 44.5 50.1449C47.156 50.1449 49.3 48.0009 49.3 45.3449C49.3 42.6889 47.156 40.5449 44.5 40.5449ZM44.5 23.2649C46.452 23.2649 48.02 24.8329 48.02 26.7849C48.02 28.7369 46.452 30.3049 44.5 30.3049C42.548 30.3049 40.98 28.7369 40.98 26.7849C40.98 24.8329 42.548 23.2649 44.5 23.2649ZM28.5 39.5849C26.548 39.5849 24.98 38.0169 24.98 36.0649C24.98 34.1129 26.548 32.5449 28.5 32.5449C30.452 32.5449 32.02 34.1129 32.02 36.0649C32.02 38.0169 30.452 39.5849 28.5 39.5849ZM44.5 48.8649C42.548 48.8649 40.98 47.2969 40.98 45.3449C40.98 43.3929 42.548 41.8249 44.5 41.8249C46.452 41.8249 48.02 43.3929 48.02 45.3449C48.02 47.2969 46.452 48.8649 44.5 48.8649Z" fill="#E97730" stroke="#E97730"/>
<path d="M546.58 -143.135V395.745H-24.3V-143.135H546.58ZM549.14 -145.695H-26.86V398.305H549.14V-145.695Z" fill="#0000FF"/>
</g>
<defs>
<clipPath id="clip0_62_53">
<rect width="32" height="32" fill="white" transform="translate(20.5 20.0649)"/>
</clipPath>
</defs>
</svg>
