<svg width="73" height="73" viewBox="0 0 73 73" fill="none" xmlns="http://www.w3.org/2000/svg">
<circle cx="36.5" cy="36.7578" r="36" fill="#F7F7F7"/>
<g clip-path="url(#clip0_62_28)">
<path d="M20.5 37.1113L24.073 40.6113L24.817 39.9043L22.207 37.2578H36V51.0508L33.3535 48.4043L32.6465 49.1848L36.1465 52.7578H36.8535L40.3535 49.1848L39.6465 48.4408L37 51.0508V37.2578H50.793L48.1465 39.9043L48.927 40.6113L52.5 37.1113V36.4043L48.927 32.9043L48.183 33.6113L50.793 36.2578H37V22.4648L39.6465 25.1113L40.3535 24.3308L36.8535 20.7578H36.1465L32.6465 24.3308L33.3535 25.0748L36 22.4648V36.2578H22.207L24.8535 33.6113L24.073 32.9043L20.5 36.4043V37.1113Z" fill="#E97730" stroke="#E97730"/>
</g>
<defs>
<clipPath id="clip0_62_28">
<rect width="32" height="32" fill="white" transform="translate(20.5 20.7578)"/>
</clipPath>
</defs>
</svg>
