<svg width="44" height="33" viewBox="0 0 44 33" fill="none" xmlns="http://www.w3.org/2000/svg">
<path d="M37.1826 0.182129H1.32283L19.2527 15.9317L37.1826 0.182129Z" fill="#E97730"/>
<path d="M38.5055 17.1858V1.94922L25.9426 13.0203L31.9272 18.847C33.3018 17.711 35.047 17.031 36.9476 17.031C37.4815 17.027 37.9995 17.084 38.5055 17.1858Z" fill="#E97730"/>
<path d="M0 1.94922V25.2519L12.5629 13.0203L0 1.94922Z" fill="#E97730"/>
<path d="M30.5167 20.3537L24.4165 14.5352L18.9459 19.2055L13.9893 14.7265L1.62564 26.9011H29.1062C28.9947 26.3555 28.9349 25.7936 28.9349 25.2154C28.9349 23.3912 29.5286 21.7137 30.5167 20.3537Z" fill="#E97730"/>
<path d="M43.6932 23.1428C43.6255 22.9229 43.5498 22.7112 43.4621 22.5035C42.4262 20.0035 40.0036 18.2485 37.1826 18.2485C33.4174 18.2485 30.3653 21.3675 30.3653 25.2153C30.3653 29.0631 33.4174 32.1821 37.1826 32.1821C40.0076 32.1821 42.4301 30.4272 43.4621 27.9271C43.5498 27.7195 43.6255 27.5037 43.6932 27.2879C43.8924 26.6323 44 25.936 44 25.2153C44 24.4946 43.8924 23.7984 43.6932 23.1428ZM37.1667 28.546C36.836 28.2447 36.8081 27.7276 37.103 27.3896L38.2863 26.0338H34.29C33.8477 26.0338 33.4891 25.6673 33.4891 25.2153C33.4891 24.7634 33.8477 24.3969 34.29 24.3969H38.2823L37.099 23.041C36.8041 22.703 36.832 22.1859 37.1627 21.8846C37.4934 21.5833 37.9995 21.6118 38.2943 21.9498L40.665 24.6697C40.673 24.6779 40.677 24.6901 40.685 24.6982C40.6969 24.7145 40.7089 24.7267 40.7208 24.743C40.7288 24.7552 40.7368 24.7674 40.7447 24.7837C40.7567 24.8 40.7646 24.8163 40.7726 24.8367C40.7806 24.8529 40.7886 24.8692 40.7965 24.8814C40.8045 24.8937 40.8085 24.9099 40.8125 24.9262C40.8204 24.9466 40.8244 24.9669 40.8324 24.9832C40.8364 24.9995 40.8403 25.0158 40.8443 25.0321C40.8483 25.0484 40.8483 25.0606 40.8523 25.0769C40.8563 25.0972 40.8563 25.1176 40.8603 25.138C40.8603 25.1583 40.8643 25.1746 40.8643 25.195C40.8643 25.2031 40.8682 25.2113 40.8682 25.2153C40.8682 25.2194 40.8682 25.2316 40.8643 25.2357C40.8643 25.256 40.8643 25.2723 40.8603 25.2927C40.8603 25.313 40.8563 25.3334 40.8523 25.3538C40.8483 25.3701 40.8483 25.3823 40.8443 25.3986C40.8403 25.4148 40.8364 25.4311 40.8324 25.4474C40.8284 25.4678 40.8204 25.4881 40.8125 25.5044C40.8085 25.5207 40.8005 25.5329 40.7965 25.5492C40.7886 25.5655 40.7806 25.5818 40.7726 25.594C40.7646 25.6103 40.7527 25.6306 40.7447 25.6469C40.7368 25.6591 40.7288 25.6754 40.7208 25.6876C40.7089 25.7039 40.6969 25.7162 40.685 25.7324C40.677 25.7406 40.673 25.7528 40.665 25.7609L38.2943 28.4809C38.1349 28.6641 37.9158 28.7537 37.6966 28.7537C37.5094 28.7537 37.3221 28.6845 37.1667 28.546Z" fill="#E97730"/>
<path d="M38.2983 28.481L40.669 25.761C40.677 25.7529 40.681 25.7407 40.6889 25.7325C40.7009 25.7162 40.7128 25.704 40.7248 25.6877C40.7328 25.6755 40.7407 25.6633 40.7487 25.647C40.7607 25.6307 40.7686 25.6144 40.7766 25.5941C40.7846 25.5778 40.7925 25.5615 40.8005 25.5493C40.8085 25.5371 40.8125 25.5208 40.8164 25.5045C40.8244 25.4841 40.8284 25.4638 40.8364 25.4475C40.8404 25.4312 40.8443 25.4149 40.8483 25.3986C40.8523 25.3824 40.8523 25.3701 40.8563 25.3538C40.8603 25.3335 40.8603 25.3131 40.8643 25.2928C40.8643 25.2724 40.8682 25.2561 40.8682 25.2358C40.8682 25.2276 40.8722 25.2195 40.8722 25.2154C40.8722 25.2113 40.8722 25.1991 40.8682 25.1951C40.8682 25.1747 40.8682 25.1584 40.8643 25.138C40.8643 25.1177 40.8603 25.0973 40.8563 25.077C40.8523 25.0607 40.8523 25.0485 40.8483 25.0322C40.8443 25.0159 40.8404 24.9996 40.8364 24.9833C40.8324 24.963 40.8244 24.9426 40.8164 24.9263C40.8125 24.91 40.8045 24.8978 40.8005 24.8815C40.7925 24.8652 40.7846 24.849 40.7766 24.8367C40.7686 24.8204 40.7567 24.8001 40.7487 24.7838C40.7407 24.7716 40.7328 24.7594 40.7248 24.7431C40.7128 24.7268 40.7009 24.7146 40.6889 24.6983C40.681 24.6902 40.677 24.6779 40.669 24.6698L38.2983 21.9499C38.0034 21.6119 37.4974 21.5834 37.1667 21.8847C36.836 22.186 36.8081 22.7031 37.103 23.0411L38.2863 24.397H34.29C33.8477 24.397 33.4891 24.7634 33.4891 25.2154C33.4891 25.6674 33.8477 26.0338 34.29 26.0338H38.2824L37.099 27.3897C36.8041 27.7277 36.832 28.2448 37.1627 28.5461C37.3141 28.6846 37.5054 28.7538 37.6966 28.7538C37.9198 28.7538 38.1389 28.6601 38.2983 28.481Z" fill="white"/>
</svg>
