<svg width="73" height="73" viewBox="0 0 73 73" fill="none" xmlns="http://www.w3.org/2000/svg">
<circle cx="36.5" cy="36.7578" r="36" fill="#F7F7F7"/>
<path d="M36.5 22.3578C28.564 22.3578 22.1 28.8218 22.1 36.7578C22.1 44.6938 28.564 51.1578 36.5 51.1578C36.852 51.1578 37.14 50.8698 37.14 50.5178C37.14 50.1658 36.852 49.8778 36.5 49.8778C29.268 49.8778 23.38 43.9898 23.38 36.7578C23.38 29.5258 29.268 23.6378 36.5 23.6378C43.732 23.6378 49.62 29.5258 49.62 36.7578V39.9578C49.62 41.5578 48.34 42.8378 46.74 42.8378C45.14 42.8378 43.86 41.5578 43.86 39.9578V36.7578C43.86 32.6938 40.564 29.3978 36.5 29.3978C32.436 29.3978 29.14 32.6938 29.14 36.7578C29.14 40.8218 32.436 44.1178 36.5 44.1178C39.092 44.1178 41.332 42.7738 42.676 40.7898C43.028 42.6778 44.724 44.1178 46.74 44.1178C49.044 44.1178 50.9 42.2618 50.9 39.9578V36.7578C50.9 28.8218 44.436 22.3578 36.5 22.3578ZM36.5 42.8378C33.14 42.8378 30.42 40.1178 30.42 36.7578C30.42 33.3978 33.14 30.6778 36.5 30.6778C39.86 30.6778 42.58 33.3978 42.58 36.7578C42.58 40.1178 39.86 42.8378 36.5 42.8378Z" fill="#E97730" stroke="#E97730"/>
</svg>
