<svg width="661" height="308" viewBox="0 0 661 308" fill="none" xmlns="http://www.w3.org/2000/svg">
<path opacity="0.7" d="M205.513 19.9078H0.814148V63.0418H205.513V75.992C205.513 76.1722 205.733 76.2605 205.858 76.1303L243.236 37.124L205.839 6.75455C205.709 6.6484 205.513 6.74142 205.513 6.90981V19.9078Z" fill="#E97730"/>
<path d="M16.1813 47.4976H15.0192V38.5356H11.8541V37.5034H19.3463V38.5356H16.1813V47.4976ZM24.1041 39.8687C24.4368 39.8687 24.7353 39.896 24.9996 39.9507L24.8424 41.0034C24.5325 40.9351 24.2591 40.9009 24.0221 40.9009C23.416 40.9009 22.8964 41.147 22.4635 41.6392C22.0351 42.1313 21.8209 42.7443 21.8209 43.478V47.4976H20.6862V40.0054H21.6227L21.7526 41.3931H21.8073C22.0852 40.9054 22.4202 40.5295 22.8121 40.2651C23.2041 40.0008 23.6347 39.8687 24.1041 39.8687ZM31.0084 47.4976L30.7828 46.4312H30.7281C30.3545 46.9006 29.9808 47.2196 29.6071 47.3882C29.2379 47.5522 28.7753 47.6343 28.2194 47.6343C27.4765 47.6343 26.8932 47.4429 26.4694 47.0601C26.0501 46.6772 25.8405 46.1326 25.8405 45.4263C25.8405 43.9132 27.0504 43.1203 29.4703 43.0474L30.7418 43.0063V42.5415C30.7418 41.9536 30.6142 41.5207 30.359 41.2427C30.1084 40.9601 29.705 40.8188 29.149 40.8188C28.5247 40.8188 27.8183 41.0103 27.0299 41.3931L26.6813 40.5249C27.0504 40.3244 27.4537 40.1672 27.8912 40.0532C28.3333 39.9393 28.7753 39.8823 29.2174 39.8823C30.1106 39.8823 30.7714 40.0806 31.1998 40.4771C31.6328 40.8735 31.8492 41.5093 31.8492 42.3843V47.4976H31.0084ZM28.4449 46.6978C29.1513 46.6978 29.705 46.5041 30.1061 46.1167C30.5117 45.7293 30.7145 45.187 30.7145 44.4897V43.813L29.5797 43.8608C28.6774 43.8927 28.0257 44.034 27.6246 44.2847C27.2281 44.5308 27.0299 44.9159 27.0299 45.4399C27.0299 45.8501 27.153 46.1623 27.399 46.3765C27.6497 46.5907 27.9983 46.6978 28.4449 46.6978ZM30.6188 37.2778C30.6188 37.9159 30.2405 38.3123 29.484 38.4673L29.4156 39.2397H28.6979L28.6158 38.0366C29.0078 37.9728 29.2926 37.884 29.4703 37.77C29.6481 37.6561 29.7369 37.5011 29.7369 37.3052C29.7369 37.1092 29.6595 36.9657 29.5045 36.8745C29.3541 36.7788 29.1126 36.731 28.7799 36.731C28.4974 36.731 28.2832 36.7446 28.1373 36.772V36.0884C28.3105 36.0428 28.5543 36.02 28.8688 36.02C30.0354 36.02 30.6188 36.4393 30.6188 37.2778ZM40.2506 46.6978C40.4511 46.6978 40.6448 46.6841 40.8317 46.6567C41.0185 46.6248 41.1666 46.5929 41.276 46.561V47.4292C41.153 47.4884 40.9707 47.5363 40.7291 47.5728C40.4921 47.6138 40.278 47.6343 40.0865 47.6343C38.6373 47.6343 37.9127 46.8709 37.9127 45.3442V40.8872H36.8395V40.3403L37.9127 39.8687L38.3912 38.269H39.0475V40.0054H41.2213V40.8872H39.0475V45.2964C39.0475 45.7476 39.1546 46.0939 39.3688 46.3354C39.583 46.577 39.8769 46.6978 40.2506 46.6978ZM46.1979 39.8687C46.5306 39.8687 46.8291 39.896 47.0934 39.9507L46.9362 41.0034C46.6263 40.9351 46.3528 40.9009 46.1158 40.9009C45.5097 40.9009 44.9902 41.147 44.5573 41.6392C44.1289 42.1313 43.9147 42.7443 43.9147 43.478V47.4976H42.7799V40.0054H43.7164L43.8463 41.3931H43.901C44.179 40.9054 44.514 40.5295 44.9059 40.2651C45.2978 40.0008 45.7285 39.8687 46.1979 39.8687ZM49.5612 40.019V44.8657C49.5612 45.4764 49.7002 45.9321 49.9781 46.2329C50.2561 46.5337 50.6914 46.6841 51.2838 46.6841C52.0677 46.6841 52.6396 46.4699 52.9996 46.0415C53.3642 45.6131 53.5465 44.9136 53.5465 43.9429V40.019H54.6813V40.8462C55.055 40.7961 55.3261 40.6252 55.4948 40.3335C55.6634 40.0418 55.7477 39.5451 55.7477 38.8433H56.9645L57.067 39.0005C56.9212 39.8481 56.6477 40.4907 56.2467 40.9282C55.8457 41.3612 55.3239 41.6095 54.6813 41.6733V47.4976H53.7448L53.5807 46.4927H53.5192C53.2822 46.8664 52.9563 47.1512 52.5416 47.3472C52.1315 47.5386 51.6735 47.6343 51.1676 47.6343C50.2425 47.6343 49.552 47.4178 49.0963 46.9849C48.6406 46.5519 48.4127 45.8592 48.4127 44.9067V40.019H49.5612ZM64.2721 43.7446C64.2721 44.966 63.9645 45.9207 63.3492 46.6089C62.734 47.2925 61.8841 47.6343 60.7994 47.6343C60.1295 47.6343 59.5348 47.4771 59.0153 47.1626C58.4957 46.8481 58.0947 46.397 57.8121 45.8091C57.5296 45.2212 57.3883 44.533 57.3883 43.7446C57.3883 42.5233 57.6936 41.5731 58.3043 40.894C58.915 40.2104 59.7627 39.8687 60.8473 39.8687C61.8362 39.8687 62.6429 40.1899 63.2672 40.8325C63.4996 40.7642 63.6819 40.6571 63.8141 40.5112C63.9462 40.3608 64.042 40.174 64.1012 39.9507C64.1604 39.7228 64.1901 39.3582 64.1901 38.8569H65.4205L65.5231 39.0142C65.3818 39.7251 65.1722 40.2811 64.8942 40.6821C64.6207 41.0786 64.2516 41.3634 63.7867 41.5366C64.1103 42.1655 64.2721 42.9015 64.2721 43.7446ZM58.5641 43.7446C58.5641 44.7062 58.7441 45.4377 59.1041 45.939C59.4642 46.4357 60.0384 46.6841 60.8268 46.6841C61.6243 46.6841 62.2008 46.4357 62.5563 45.939C62.9163 45.4377 63.0963 44.7062 63.0963 43.7446C63.0963 42.7876 62.914 42.063 62.5494 41.5708C62.1894 41.0786 61.6106 40.8325 60.8131 40.8325C60.0247 40.8325 59.4528 41.0786 59.0973 41.5708C58.7418 42.063 58.5641 42.7876 58.5641 43.7446ZM60.0338 38.8433C60.2526 38.5607 60.4873 38.2189 60.7379 37.8179C60.9931 37.4168 61.1936 37.0682 61.3395 36.772H62.7203V36.9155C62.5198 37.2118 62.2213 37.5763 61.8248 38.0093C61.4283 38.4422 61.0843 38.7772 60.7926 39.0142H60.0338V38.8433ZM69.3307 47.6343C68.2461 47.6343 67.4052 47.3016 66.8082 46.6362C66.2158 45.9663 65.9196 45.0207 65.9196 43.7993C65.9196 42.5461 66.2203 41.5776 66.8219 40.894C67.428 40.2104 68.2893 39.8687 69.4059 39.8687C69.7659 39.8687 70.1259 39.9074 70.486 39.9849C70.846 40.0623 71.1285 40.1535 71.3336 40.2583L70.985 41.2222C70.7343 41.1219 70.4609 41.0399 70.1647 40.9761C69.8684 40.9077 69.6064 40.8735 69.3785 40.8735C67.8564 40.8735 67.0953 41.8442 67.0953 43.7856C67.0953 44.7062 67.2799 45.4126 67.649 45.9048C68.0227 46.397 68.5742 46.6431 69.3033 46.6431C69.9277 46.6431 70.568 46.5086 71.2242 46.2397V47.2446C70.7229 47.5044 70.0918 47.6343 69.3307 47.6343ZM76.2418 43.2251C76.2418 41.2609 76.6224 39.7935 77.3834 38.8228C78.149 37.8475 79.2793 37.3599 80.774 37.3599C81.289 37.3599 81.6946 37.4032 81.9908 37.4897V38.4673C81.6399 38.3534 81.2389 38.2964 80.7877 38.2964C79.7168 38.2964 78.8987 38.6313 78.3336 39.3013C77.7685 39.9666 77.4586 41.0148 77.4039 42.4458H77.486C77.9873 41.6619 78.7802 41.27 79.8649 41.27C80.7627 41.27 81.469 41.5412 81.984 42.0835C82.5035 42.6258 82.7633 43.3618 82.7633 44.2915C82.7633 45.3306 82.4785 46.1486 81.9088 46.7456C81.3437 47.3381 80.5781 47.6343 79.6119 47.6343C78.5774 47.6343 77.7571 47.2469 77.151 46.4722C76.5449 45.6929 76.2418 44.6105 76.2418 43.2251ZM79.5983 46.6704C80.2454 46.6704 80.7467 46.4676 81.1022 46.062C81.4622 45.6519 81.6422 45.0617 81.6422 44.2915C81.6422 43.6307 81.4759 43.1112 81.1432 42.7329C80.8105 42.3547 80.3138 42.1655 79.653 42.1655C79.2428 42.1655 78.8668 42.2498 78.525 42.4185C78.1832 42.5871 77.9098 42.8195 77.7047 43.1157C77.5042 43.4119 77.4039 43.7196 77.4039 44.0386C77.4039 44.508 77.4951 44.9455 77.6774 45.3511C77.8597 45.7567 78.1171 46.078 78.4498 46.3149C78.7871 46.5519 79.1699 46.6704 79.5983 46.6704ZM90.7135 46.6978C90.914 46.6978 91.1077 46.6841 91.2946 46.6567C91.4814 46.6248 91.6295 46.5929 91.7389 46.561V47.4292C91.6158 47.4884 91.4336 47.5363 91.192 47.5728C90.955 47.6138 90.7408 47.6343 90.5494 47.6343C89.1002 47.6343 88.3756 46.8709 88.3756 45.3442V40.8872H87.3024V40.3403L88.3756 39.8687L88.8541 38.269H89.5104V40.0054H91.6842V40.8872H89.5104V45.2964C89.5104 45.7476 89.6175 46.0939 89.8317 46.3354C90.0459 46.577 90.3398 46.6978 90.7135 46.6978ZM98.3698 47.4976V42.6509C98.3698 42.0402 98.2308 41.5845 97.9528 41.2837C97.6748 40.9829 97.2395 40.8325 96.6471 40.8325C95.8587 40.8325 95.2822 41.0467 94.9176 41.4751C94.5576 41.9035 94.3776 42.6053 94.3776 43.5806V47.4976H93.2428V36.8608H94.3776V40.0806C94.3776 40.4679 94.3593 40.7892 94.3229 41.0444H94.3912C94.6145 40.6844 94.9313 40.4019 95.3414 40.1968C95.7561 39.9871 96.2278 39.8823 96.7565 39.8823C97.6725 39.8823 98.3584 40.1011 98.8141 40.5386C99.2744 40.9715 99.5045 41.6619 99.5045 42.6099V47.4976H98.3698ZM106.45 47.4976L106.224 46.4312H106.17C105.796 46.9006 105.422 47.2196 105.048 47.3882C104.679 47.5522 104.217 47.6343 103.661 47.6343C102.918 47.6343 102.335 47.4429 101.911 47.0601C101.491 46.6772 101.282 46.1326 101.282 45.4263C101.282 43.9132 102.492 43.1203 104.912 43.0474L106.183 43.0063V42.5415C106.183 41.9536 106.056 41.5207 105.8 41.2427C105.55 40.9601 105.146 40.8188 104.59 40.8188C103.966 40.8188 103.26 41.0103 102.471 41.3931L102.123 40.5249C102.492 40.3244 102.895 40.1672 103.333 40.0532C103.775 39.9393 104.217 39.8823 104.659 39.8823C105.552 39.8823 106.213 40.0806 106.641 40.4771C107.074 40.8735 107.291 41.5093 107.291 42.3843V47.4976H106.45ZM103.886 46.6978C104.593 46.6978 105.146 46.5041 105.547 46.1167C105.953 45.7293 106.156 45.187 106.156 44.4897V43.813L105.021 43.8608C104.119 43.8927 103.467 44.034 103.066 44.2847C102.67 44.5308 102.471 44.9159 102.471 45.4399C102.471 45.8501 102.594 46.1623 102.84 46.3765C103.091 46.5907 103.44 46.6978 103.886 46.6978ZM103.62 38.8433C103.839 38.5607 104.073 38.2189 104.324 37.8179C104.579 37.4168 104.78 37.0682 104.925 36.772H106.306V36.9155C106.106 37.2118 105.807 37.5763 105.411 38.0093C105.014 38.4422 104.67 38.7772 104.379 39.0142H103.62V38.8433ZM114.762 47.4976V42.6509C114.762 42.0402 114.623 41.5845 114.345 41.2837C114.067 40.9829 113.632 40.8325 113.04 40.8325C112.256 40.8325 111.682 41.0444 111.317 41.4683C110.952 41.8921 110.77 42.5916 110.77 43.5669V47.4976H109.635V40.0054H110.558L110.743 41.0308H110.797C111.03 40.6616 111.356 40.3768 111.775 40.1763C112.194 39.9712 112.661 39.8687 113.176 39.8687C114.079 39.8687 114.758 40.0874 115.214 40.5249C115.669 40.9578 115.897 41.6528 115.897 42.6099V47.4976H114.762ZM124.367 40.0054V40.7231L122.979 40.8872C123.107 41.0467 123.221 41.2563 123.321 41.5161C123.421 41.7713 123.471 42.0607 123.471 42.3843C123.471 43.118 123.221 43.7036 122.719 44.1411C122.218 44.5786 121.53 44.7974 120.655 44.7974C120.432 44.7974 120.222 44.7791 120.026 44.7427C119.543 44.9979 119.301 45.3192 119.301 45.7065C119.301 45.9116 119.386 46.0643 119.554 46.1646C119.723 46.2603 120.012 46.3081 120.422 46.3081H121.749C122.56 46.3081 123.182 46.479 123.615 46.8208C124.052 47.1626 124.271 47.6593 124.271 48.311C124.271 49.1405 123.938 49.7716 123.273 50.2046C122.608 50.6421 121.637 50.8608 120.361 50.8608C119.381 50.8608 118.625 50.6785 118.091 50.314C117.563 49.9494 117.298 49.4344 117.298 48.769C117.298 48.3133 117.444 47.9191 117.736 47.5864C118.028 47.2537 118.438 47.0282 118.966 46.9097C118.775 46.8231 118.613 46.6886 118.481 46.5063C118.353 46.3241 118.29 46.1121 118.29 45.8706C118.29 45.5972 118.363 45.3579 118.508 45.1528C118.654 44.9478 118.884 44.7495 119.199 44.5581C118.811 44.3986 118.495 44.1274 118.249 43.7446C118.007 43.3618 117.886 42.9243 117.886 42.4321C117.886 41.6118 118.132 40.9806 118.625 40.5386C119.117 40.092 119.814 39.8687 120.716 39.8687C121.108 39.8687 121.462 39.9142 121.776 40.0054H124.367ZM118.392 48.7554C118.392 49.161 118.563 49.4686 118.905 49.6782C119.247 49.8879 119.737 49.9927 120.375 49.9927C121.327 49.9927 122.031 49.8491 122.487 49.562C122.947 49.2795 123.177 48.8944 123.177 48.4067C123.177 48.0011 123.052 47.7186 122.801 47.5591C122.551 47.4041 122.079 47.3267 121.386 47.3267H120.026C119.511 47.3267 119.11 47.4497 118.823 47.6958C118.536 47.9419 118.392 48.2951 118.392 48.7554ZM119.007 42.4048C119.007 42.9289 119.156 43.3254 119.452 43.5942C119.748 43.8631 120.16 43.9976 120.689 43.9976C121.797 43.9976 122.35 43.4598 122.35 42.3843C122.35 41.2586 121.79 40.6958 120.669 40.6958C120.135 40.6958 119.725 40.8394 119.438 41.1265C119.151 41.4136 119.007 41.8397 119.007 42.4048Z" fill="white"/>
<g filter="url(#filter0_d_64_8)">
<rect x="263.236" y="12.9897" width="204" height="57" rx="4" fill="white" shape-rendering="crispEdges"/>
<path d="M290.138 42.2729H294.021V47.8276C293.417 48.0203 292.802 48.1661 292.177 48.2651C291.552 48.364 290.829 48.4135 290.006 48.4135C288.276 48.4135 286.93 47.9005 285.967 46.8745C285.003 45.8432 284.521 44.4005 284.521 42.5463C284.521 41.3588 284.758 40.3198 285.232 39.4291C285.711 38.5333 286.399 37.851 287.295 37.3823C288.19 36.9083 289.24 36.6713 290.443 36.6713C291.662 36.6713 292.797 36.8953 293.849 37.3432L293.334 38.5151C292.302 38.0776 291.31 37.8588 290.357 37.8588C288.967 37.8588 287.881 38.2729 287.099 39.101C286.318 39.9291 285.927 41.0776 285.927 42.5463C285.927 44.088 286.302 45.2573 287.052 46.0541C287.808 46.851 288.914 47.2495 290.373 47.2495C291.164 47.2495 291.938 47.1583 292.693 46.976V43.4604H290.138V42.2729ZM297.873 48.2573H296.576V39.6948H297.873V48.2573ZM296.467 37.3745C296.467 37.0776 296.539 36.8614 296.685 36.726C296.831 36.5854 297.013 36.5151 297.232 36.5151C297.44 36.5151 297.62 36.5854 297.771 36.726C297.922 36.8666 297.998 37.0828 297.998 37.3745C297.998 37.6661 297.922 37.8849 297.771 38.0307C297.62 38.1713 297.44 38.2416 297.232 38.2416C297.013 38.2416 296.831 38.1713 296.685 38.0307C296.539 37.8849 296.467 37.6661 296.467 37.3745ZM305.888 48.2573L305.631 47.0385H305.568C305.141 47.575 304.714 47.9396 304.287 48.1323C303.865 48.3198 303.336 48.4135 302.701 48.4135C301.852 48.4135 301.185 48.1948 300.701 47.7573C300.222 47.3198 299.982 46.6974 299.982 45.8901C299.982 44.1609 301.365 43.2547 304.131 43.1713L305.584 43.1245V42.5932C305.584 41.9213 305.438 41.4265 305.146 41.1088C304.86 40.7859 304.399 40.6245 303.763 40.6245C303.05 40.6245 302.243 40.8432 301.342 41.2807L300.943 40.2885C301.365 40.0594 301.826 39.8797 302.326 39.7495C302.831 39.6192 303.336 39.5541 303.842 39.5541C304.862 39.5541 305.618 39.7807 306.107 40.2338C306.602 40.687 306.849 41.4135 306.849 42.4135V48.2573H305.888ZM302.959 47.3432C303.766 47.3432 304.399 47.1219 304.857 46.6791C305.321 46.2364 305.552 45.6166 305.552 44.8198V44.0463L304.256 44.101C303.224 44.1375 302.48 44.2989 302.021 44.5854C301.568 44.8666 301.342 45.3067 301.342 45.9057C301.342 46.3745 301.482 46.7312 301.763 46.976C302.05 47.2208 302.448 47.3432 302.959 47.3432ZM305.443 36.5776C305.443 37.3067 305.011 37.7599 304.146 37.937L304.068 38.8198H303.248L303.154 37.4448C303.602 37.3719 303.927 37.2703 304.131 37.1401C304.334 37.0099 304.435 36.8328 304.435 36.6088C304.435 36.3849 304.347 36.2208 304.17 36.1166C303.998 36.0073 303.722 35.9526 303.342 35.9526C303.019 35.9526 302.774 35.9682 302.607 35.9995V35.2182C302.805 35.1661 303.084 35.1401 303.443 35.1401C304.776 35.1401 305.443 35.6192 305.443 36.5776ZM320.443 48.2573V42.687C320.443 42.0047 320.297 41.4942 320.006 41.1557C319.714 40.812 319.261 40.6401 318.646 40.6401C317.839 40.6401 317.243 40.8719 316.857 41.3354C316.472 41.7989 316.279 42.5125 316.279 43.476V48.2573H314.982V42.687C314.982 42.0047 314.836 41.4942 314.545 41.1557C314.253 40.812 313.797 40.6401 313.177 40.6401C312.365 40.6401 311.769 40.8849 311.388 41.3745C311.013 41.8588 310.826 42.6557 310.826 43.7651V48.2573H309.529V39.6948H310.584L310.795 40.8666H310.857C311.102 40.45 311.446 40.1245 311.888 39.8901C312.336 39.6557 312.836 39.5385 313.388 39.5385C314.727 39.5385 315.602 40.0229 316.013 40.9916H316.076C316.331 40.5437 316.701 40.1896 317.185 39.9291C317.67 39.6687 318.222 39.5385 318.842 39.5385C319.81 39.5385 320.534 39.7885 321.013 40.2885C321.498 40.7833 321.74 41.5776 321.74 42.6713V48.2573H320.443ZM334.435 48.2573V42.7182C334.435 42.0203 334.276 41.4995 333.959 41.1557C333.641 40.812 333.144 40.6401 332.467 40.6401C331.571 40.6401 330.914 40.8823 330.498 41.3666C330.081 41.851 329.873 42.6505 329.873 43.7651V48.2573H328.576V39.6948H329.631L329.842 40.8666H329.904C330.17 40.4448 330.542 40.1192 331.021 39.8901C331.5 39.6557 332.034 39.5385 332.623 39.5385C333.654 39.5385 334.43 39.7885 334.951 40.2885C335.472 40.7833 335.732 41.5776 335.732 42.6713V48.2573H334.435ZM345.412 39.6948V40.5151L343.826 40.7026C343.972 40.8849 344.102 41.1245 344.217 41.4213C344.331 41.713 344.388 42.0437 344.388 42.4135C344.388 43.2521 344.102 43.9213 343.529 44.4213C342.956 44.9213 342.17 45.1713 341.17 45.1713C340.914 45.1713 340.675 45.1505 340.451 45.1088C339.899 45.4005 339.623 45.7677 339.623 46.2104C339.623 46.4448 339.719 46.6192 339.912 46.7338C340.105 46.8432 340.435 46.8979 340.904 46.8979H342.42C343.347 46.8979 344.058 47.0932 344.552 47.4838C345.052 47.8745 345.302 48.4422 345.302 49.187C345.302 50.1349 344.922 50.8562 344.162 51.351C343.401 51.851 342.292 52.101 340.834 52.101C339.714 52.101 338.849 51.8927 338.24 51.476C337.636 51.0594 337.334 50.4708 337.334 49.7104C337.334 49.1896 337.5 48.739 337.834 48.3588C338.167 47.9786 338.636 47.7208 339.24 47.5854C339.021 47.4864 338.836 47.3328 338.685 47.1245C338.539 46.9161 338.467 46.6739 338.467 46.3979C338.467 46.0854 338.55 45.812 338.717 45.5776C338.883 45.3432 339.146 45.1166 339.506 44.8979C339.063 44.7156 338.701 44.4057 338.42 43.9682C338.144 43.5307 338.006 43.0307 338.006 42.4682C338.006 41.5307 338.287 40.8094 338.849 40.3041C339.412 39.7937 340.209 39.5385 341.24 39.5385C341.688 39.5385 342.092 39.5906 342.451 39.6948H345.412ZM338.584 49.6948C338.584 50.1583 338.779 50.5099 339.17 50.7495C339.56 50.989 340.12 51.1088 340.849 51.1088C341.938 51.1088 342.743 50.9448 343.263 50.6166C343.789 50.2937 344.052 49.8536 344.052 49.2963C344.052 48.8328 343.909 48.5099 343.623 48.3276C343.336 48.1505 342.797 48.062 342.006 48.062H340.451C339.862 48.062 339.404 48.2026 339.076 48.4838C338.748 48.7651 338.584 49.1687 338.584 49.6948ZM339.287 42.437C339.287 43.0359 339.456 43.489 339.795 43.7963C340.133 44.1036 340.605 44.2573 341.209 44.2573C342.474 44.2573 343.107 43.6427 343.107 42.4135C343.107 41.1271 342.467 40.4838 341.185 40.4838C340.576 40.4838 340.107 40.6479 339.779 40.976C339.451 41.3041 339.287 41.7911 339.287 42.437ZM352.435 48.2573L352.177 47.0385H352.115C351.688 47.575 351.261 47.9396 350.834 48.1323C350.412 48.3198 349.883 48.4135 349.248 48.4135C348.399 48.4135 347.732 48.1948 347.248 47.7573C346.769 47.3198 346.529 46.6974 346.529 45.8901C346.529 44.1609 347.912 43.2547 350.677 43.1713L352.131 43.1245V42.5932C352.131 41.9213 351.985 41.4265 351.693 41.1088C351.407 40.7859 350.946 40.6245 350.31 40.6245C349.597 40.6245 348.789 40.8432 347.888 41.2807L347.49 40.2885C347.912 40.0594 348.373 39.8797 348.873 39.7495C349.378 39.6192 349.883 39.5541 350.388 39.5541C351.409 39.5541 352.164 39.7807 352.654 40.2338C353.149 40.687 353.396 41.4135 353.396 42.4135V48.2573H352.435ZM349.506 47.3432C350.313 47.3432 350.946 47.1219 351.404 46.6791C351.868 46.2364 352.099 45.6166 352.099 44.8198V44.0463L350.802 44.101C349.771 44.1375 349.026 44.2989 348.568 44.5854C348.115 44.8666 347.888 45.3067 347.888 45.9057C347.888 46.3745 348.029 46.7312 348.31 46.976C348.597 47.2208 348.995 47.3432 349.506 47.3432ZM354.717 39.6948H356.107L357.982 44.5776C358.394 45.6922 358.649 46.4969 358.748 46.9916H358.81C358.878 46.726 359.019 46.2729 359.232 45.6323C359.451 44.9864 360.159 43.0073 361.357 39.6948H362.748L359.068 49.4448C358.704 50.4083 358.276 51.0906 357.787 51.4916C357.302 51.8979 356.706 52.101 355.998 52.101C355.602 52.101 355.211 52.0567 354.826 51.9682V50.9291C355.112 50.9916 355.433 51.0229 355.787 51.0229C356.677 51.0229 357.313 50.5229 357.693 49.5229L358.17 48.3041L354.717 39.6948ZM402.381 48.4135C401.141 48.4135 400.18 48.0333 399.498 47.2729C398.821 46.5073 398.482 45.4265 398.482 44.0307C398.482 42.5984 398.826 41.4916 399.513 40.7104C400.206 39.9291 401.19 39.5385 402.467 39.5385C402.878 39.5385 403.289 39.5828 403.701 39.6713C404.112 39.7599 404.435 39.864 404.67 39.9838L404.271 41.0854C403.985 40.9708 403.672 40.8771 403.334 40.8041C402.995 40.726 402.696 40.687 402.435 40.687C400.696 40.687 399.826 41.7963 399.826 44.0151C399.826 45.0672 400.037 45.8745 400.459 46.437C400.886 46.9995 401.516 47.2807 402.349 47.2807C403.063 47.2807 403.795 47.1271 404.545 46.8198V47.9682C403.972 48.2651 403.25 48.4135 402.381 48.4135ZM412.443 48.2573V42.7182C412.443 42.0203 412.284 41.4995 411.967 41.1557C411.649 40.812 411.151 40.6401 410.474 40.6401C409.573 40.6401 408.914 40.8849 408.498 41.3745C408.086 41.864 407.881 42.6661 407.881 43.7807V48.2573H406.584V36.101H407.881V39.7807C407.881 40.2234 407.86 40.5906 407.818 40.8823H407.896C408.151 40.4708 408.513 40.1479 408.982 39.9135C409.456 39.6739 409.995 39.5541 410.599 39.5541C411.646 39.5541 412.43 39.8041 412.951 40.3041C413.477 40.7989 413.74 41.588 413.74 42.6713V48.2573H412.443ZM417.709 48.2573H416.412V39.6948H417.709V48.2573ZM416.302 37.3745C416.302 37.0776 416.375 36.8614 416.521 36.726C416.667 36.5854 416.849 36.5151 417.068 36.5151C417.276 36.5151 417.456 36.5854 417.607 36.726C417.758 36.8666 417.834 37.0828 417.834 37.3745C417.834 37.6661 417.758 37.8849 417.607 38.0307C417.456 38.1713 417.276 38.2416 417.068 38.2416C416.849 38.2416 416.667 38.1713 416.521 38.0307C416.375 37.8849 416.302 37.6661 416.302 37.3745ZM428.599 48.4135C428.042 48.4135 427.532 48.312 427.068 48.1088C426.61 47.9005 426.224 47.5828 425.912 47.1557H425.818C425.881 47.6557 425.912 48.1297 425.912 48.5776V52.101H424.615V39.6948H425.67L425.849 40.8666H425.912C426.245 40.3979 426.633 40.0594 427.076 39.851C427.519 39.6427 428.026 39.5385 428.599 39.5385C429.735 39.5385 430.61 39.9265 431.224 40.7026C431.844 41.4786 432.154 42.5672 432.154 43.9682C432.154 45.3745 431.839 46.4682 431.209 47.2495C430.584 48.0255 429.714 48.4135 428.599 48.4135ZM428.412 40.6401C427.537 40.6401 426.904 40.8823 426.513 41.3666C426.123 41.851 425.922 42.6219 425.912 43.6791V43.9682C425.912 45.1713 426.112 46.0333 426.513 46.5541C426.914 47.0698 427.558 47.3276 428.443 47.3276C429.183 47.3276 429.761 47.0281 430.177 46.4291C430.599 45.8302 430.81 45.0047 430.81 43.9526C430.81 42.8849 430.599 42.0672 430.177 41.4995C429.761 40.9265 429.172 40.6401 428.412 40.6401ZM440.287 48.2573V42.7182C440.287 42.0203 440.128 41.4995 439.81 41.1557C439.493 40.812 438.995 40.6401 438.318 40.6401C437.417 40.6401 436.758 40.8849 436.342 41.3745C435.93 41.864 435.724 42.6661 435.724 43.7807V48.2573H434.427V36.101H435.724V39.7807C435.724 40.2234 435.704 40.5906 435.662 40.8823H435.74C435.995 40.4708 436.357 40.1479 436.826 39.9135C437.3 39.6739 437.839 39.5541 438.443 39.5541C439.49 39.5541 440.274 39.8041 440.795 40.3041C441.321 40.7989 441.584 41.588 441.584 42.6713V48.2573H440.287ZM445.552 48.2573H444.256V39.6948H445.552V48.2573ZM444.201 38.3666C444.451 38.0437 444.719 37.6531 445.006 37.1948C445.297 36.7364 445.526 36.338 445.693 35.9995H447.271V36.1635C447.042 36.5021 446.701 36.9187 446.248 37.4135C445.795 37.9083 445.401 38.2911 445.068 38.562H444.201V38.3666Z" fill="#545454"/>
<path d="M368.915 48.2573L373.74 37.7104H367.403V35.4252H376.623V37.1303L371.762 48.2573H368.915ZM379.971 39.2573C379.971 40.0014 380.036 40.5581 380.165 40.9272C380.3 41.2905 380.513 41.4721 380.806 41.4721C381.369 41.4721 381.65 40.7338 381.65 39.2573C381.65 37.7924 381.369 37.06 380.806 37.06C380.513 37.06 380.3 37.2416 380.165 37.6049C380.036 37.9623 379.971 38.5131 379.971 39.2573ZM383.865 39.2397C383.865 40.5873 383.604 41.601 383.083 42.2807C382.561 42.9545 381.797 43.2915 380.789 43.2915C379.822 43.2915 379.075 42.9457 378.548 42.2543C378.02 41.5571 377.757 40.5522 377.757 39.2397C377.757 36.562 378.767 35.2231 380.789 35.2231C381.779 35.2231 382.538 35.5717 383.065 36.269C383.598 36.9604 383.865 37.9506 383.865 39.2397ZM389.912 35.4077L382.784 48.2573H380.675L387.802 35.4077H389.912ZM388.971 44.3901C388.971 45.1342 389.036 45.6909 389.165 46.06C389.3 46.4233 389.513 46.6049 389.806 46.6049C390.369 46.6049 390.65 45.8666 390.65 44.3901C390.65 42.9252 390.369 42.1928 389.806 42.1928C389.513 42.1928 389.3 42.3745 389.165 42.7377C389.036 43.0952 388.971 43.6459 388.971 44.3901ZM392.865 44.3725C392.865 45.7143 392.604 46.725 392.083 47.4047C391.561 48.0786 390.797 48.4155 389.789 48.4155C388.822 48.4155 388.075 48.0698 387.548 47.3784C387.02 46.6811 386.757 45.6791 386.757 44.3725C386.757 41.6948 387.767 40.3559 389.789 40.3559C390.779 40.3559 391.538 40.7045 392.065 41.4018C392.598 42.0932 392.865 43.0834 392.865 44.3725Z" fill="#E97730"/>
</g>
<path opacity="0.7" d="M285.198 107.908L0.814148 110.125V153.259L285.198 151.042V163.992C285.198 164.172 285.418 164.26 285.543 164.13L322.921 125.124L285.524 94.7546C285.394 94.6484 285.198 94.7414 285.198 94.9098V107.908Z" fill="#E97730"/>
<path d="M16.1813 134.887H15.0192V125.926H11.8541V124.893H19.3463V125.926H16.1813V134.887ZM24.1041 127.259C24.4368 127.259 24.7353 127.286 24.9996 127.341L24.8424 128.393C24.5325 128.325 24.2591 128.291 24.0221 128.291C23.416 128.291 22.8964 128.537 22.4635 129.029C22.0351 129.521 21.8209 130.134 21.8209 130.868V134.887H20.6862V127.395H21.6227L21.7526 128.783H21.8073C22.0852 128.295 22.4202 127.919 22.8121 127.655C23.2041 127.391 23.6347 127.259 24.1041 127.259ZM31.0084 134.887L30.7828 133.821H30.7281C30.3545 134.29 29.9808 134.609 29.6071 134.778C29.2379 134.942 28.7753 135.024 28.2194 135.024C27.4765 135.024 26.8932 134.833 26.4694 134.45C26.0501 134.067 25.8405 133.523 25.8405 132.816C25.8405 131.303 27.0504 130.51 29.4703 130.437L30.7418 130.396V129.931C30.7418 129.344 30.6142 128.911 30.359 128.633C30.1084 128.35 29.705 128.209 29.149 128.209C28.5247 128.209 27.8183 128.4 27.0299 128.783L26.6813 127.915C27.0504 127.714 27.4537 127.557 27.8912 127.443C28.3333 127.329 28.7753 127.272 29.2174 127.272C30.1106 127.272 30.7714 127.47 31.1998 127.867C31.6328 128.263 31.8492 128.899 31.8492 129.774V134.887H31.0084ZM28.4449 134.088C29.1513 134.088 29.705 133.894 30.1061 133.507C30.5117 133.119 30.7145 132.577 30.7145 131.88V131.203L29.5797 131.251C28.6774 131.283 28.0257 131.424 27.6246 131.675C27.2281 131.921 27.0299 132.306 27.0299 132.83C27.0299 133.24 27.153 133.552 27.399 133.766C27.6497 133.981 27.9983 134.088 28.4449 134.088ZM30.6188 124.668C30.6188 125.306 30.2405 125.702 29.484 125.857L29.4156 126.63H28.6979L28.6158 125.427C29.0078 125.363 29.2926 125.274 29.4703 125.16C29.6481 125.046 29.7369 124.891 29.7369 124.695C29.7369 124.499 29.6595 124.356 29.5045 124.264C29.3541 124.169 29.1126 124.121 28.7799 124.121C28.4974 124.121 28.2832 124.135 28.1373 124.162V123.478C28.3105 123.433 28.5543 123.41 28.8688 123.41C30.0354 123.41 30.6188 123.829 30.6188 124.668ZM40.2506 134.088C40.4511 134.088 40.6448 134.074 40.8317 134.047C41.0185 134.015 41.1666 133.983 41.276 133.951V134.819C41.153 134.878 40.9707 134.926 40.7291 134.963C40.4921 135.004 40.278 135.024 40.0865 135.024C38.6373 135.024 37.9127 134.261 37.9127 132.734V128.277H36.8395V127.73L37.9127 127.259L38.3912 125.659H39.0475V127.395H41.2213V128.277H39.0475V132.686C39.0475 133.137 39.1546 133.484 39.3688 133.725C39.583 133.967 39.8769 134.088 40.2506 134.088ZM46.1979 127.259C46.5306 127.259 46.8291 127.286 47.0934 127.341L46.9362 128.393C46.6263 128.325 46.3528 128.291 46.1158 128.291C45.5097 128.291 44.9902 128.537 44.5573 129.029C44.1289 129.521 43.9147 130.134 43.9147 130.868V134.887H42.7799V127.395H43.7164L43.8463 128.783H43.901C44.179 128.295 44.514 127.919 44.9059 127.655C45.2978 127.391 45.7285 127.259 46.1979 127.259ZM49.5612 127.409V132.256C49.5612 132.866 49.7002 133.322 49.9781 133.623C50.2561 133.924 50.6914 134.074 51.2838 134.074C52.0677 134.074 52.6396 133.86 52.9996 133.431C53.3642 133.003 53.5465 132.303 53.5465 131.333V127.409H54.6813V128.236C55.055 128.186 55.3261 128.015 55.4948 127.723C55.6634 127.432 55.7477 126.935 55.7477 126.233H56.9645L57.067 126.39C56.9212 127.238 56.6477 127.881 56.2467 128.318C55.8457 128.751 55.3239 128.999 54.6813 129.063V134.887H53.7448L53.5807 133.883H53.5192C53.2822 134.256 52.9563 134.541 52.5416 134.737C52.1315 134.928 51.6735 135.024 51.1676 135.024C50.2425 135.024 49.552 134.808 49.0963 134.375C48.6406 133.942 48.4127 133.249 48.4127 132.297V127.409H49.5612ZM64.2721 131.135C64.2721 132.356 63.9645 133.311 63.3492 133.999C62.734 134.682 61.8841 135.024 60.7994 135.024C60.1295 135.024 59.5348 134.867 59.0153 134.552C58.4957 134.238 58.0947 133.787 57.8121 133.199C57.5296 132.611 57.3883 131.923 57.3883 131.135C57.3883 129.913 57.6936 128.963 58.3043 128.284C58.915 127.6 59.7627 127.259 60.8473 127.259C61.8362 127.259 62.6429 127.58 63.2672 128.222C63.4996 128.154 63.6819 128.047 63.8141 127.901C63.9462 127.751 64.042 127.564 64.1012 127.341C64.1604 127.113 64.1901 126.748 64.1901 126.247H65.4205L65.5231 126.404C65.3818 127.115 65.1722 127.671 64.8942 128.072C64.6207 128.469 64.2516 128.753 63.7867 128.927C64.1103 129.555 64.2721 130.291 64.2721 131.135ZM58.5641 131.135C58.5641 132.096 58.7441 132.828 59.1041 133.329C59.4642 133.826 60.0384 134.074 60.8268 134.074C61.6243 134.074 62.2008 133.826 62.5563 133.329C62.9163 132.828 63.0963 132.096 63.0963 131.135C63.0963 130.177 62.914 129.453 62.5494 128.961C62.1894 128.469 61.6106 128.222 60.8131 128.222C60.0247 128.222 59.4528 128.469 59.0973 128.961C58.7418 129.453 58.5641 130.177 58.5641 131.135ZM60.0338 126.233C60.2526 125.951 60.4873 125.609 60.7379 125.208C60.9931 124.807 61.1936 124.458 61.3395 124.162H62.7203V124.305C62.5198 124.602 62.2213 124.966 61.8248 125.399C61.4283 125.832 61.0843 126.167 60.7926 126.404H60.0338V126.233ZM69.3307 135.024C68.2461 135.024 67.4052 134.691 66.8082 134.026C66.2158 133.356 65.9196 132.411 65.9196 131.189C65.9196 129.936 66.2203 128.968 66.8219 128.284C67.428 127.6 68.2893 127.259 69.4059 127.259C69.7659 127.259 70.1259 127.297 70.486 127.375C70.846 127.452 71.1285 127.543 71.3336 127.648L70.985 128.612C70.7343 128.512 70.4609 128.43 70.1647 128.366C69.8684 128.298 69.6064 128.263 69.3785 128.263C67.8564 128.263 67.0953 129.234 67.0953 131.176C67.0953 132.096 67.2799 132.802 67.649 133.295C68.0227 133.787 68.5742 134.033 69.3033 134.033C69.9277 134.033 70.568 133.899 71.2242 133.63V134.635C70.7229 134.894 70.0918 135.024 69.3307 135.024ZM80.3297 134.887H79.2223V127.764C79.2223 127.172 79.2405 126.611 79.277 126.083C79.1813 126.178 79.0742 126.279 78.9557 126.384C78.8372 126.488 78.2949 126.933 77.3287 127.717L76.7272 126.937L79.3727 124.893H80.3297V134.887ZM90.7067 134.887H84.1373V133.91L86.7692 131.264C87.5712 130.453 88.0999 129.874 88.3551 129.528C88.6103 129.182 88.8017 128.844 88.9293 128.516C89.0569 128.188 89.1207 127.835 89.1207 127.457C89.1207 126.924 88.9589 126.502 88.6354 126.192C88.3118 125.878 87.8629 125.72 87.2887 125.72C86.874 125.72 86.4798 125.789 86.1061 125.926C85.7369 126.062 85.3245 126.311 84.8688 126.671L84.2672 125.898C85.1878 125.133 86.1904 124.75 87.275 124.75C88.2138 124.75 88.9498 124.991 89.483 125.474C90.0162 125.953 90.2828 126.598 90.2828 127.409C90.2828 128.042 90.1051 128.669 89.7496 129.289C89.3942 129.909 88.7288 130.692 87.7535 131.64L85.566 133.78V133.835H90.7067V134.887ZM98.7252 134.088C98.9257 134.088 99.1194 134.074 99.3063 134.047C99.4931 134.015 99.6412 133.983 99.7506 133.951V134.819C99.6276 134.878 99.4453 134.926 99.2037 134.963C98.9668 135.004 98.7526 135.024 98.5612 135.024C97.1119 135.024 96.3873 134.261 96.3873 132.734V128.277H95.3141V127.73L96.3873 127.259L96.8658 125.659H97.5221V127.395H99.6959V128.277H97.5221V132.686C97.5221 133.137 97.6292 133.484 97.8434 133.725C98.0576 133.967 98.3515 134.088 98.7252 134.088ZM106.381 134.887V130.041C106.381 129.43 106.242 128.974 105.964 128.674C105.686 128.373 105.251 128.222 104.659 128.222C103.87 128.222 103.294 128.437 102.929 128.865C102.569 129.293 102.389 129.995 102.389 130.97V134.887H101.255V124.251H102.389V127.47C102.389 127.858 102.371 128.179 102.335 128.434H102.403C102.626 128.074 102.943 127.792 103.353 127.587C103.768 127.377 104.24 127.272 104.768 127.272C105.684 127.272 106.37 127.491 106.826 127.928C107.286 128.361 107.516 129.052 107.516 130V134.887H106.381ZM114.462 134.887L114.236 133.821H114.181C113.808 134.29 113.434 134.609 113.06 134.778C112.691 134.942 112.228 135.024 111.672 135.024C110.93 135.024 110.346 134.833 109.922 134.45C109.503 134.067 109.294 133.523 109.294 132.816C109.294 131.303 110.504 130.51 112.923 130.437L114.195 130.396V129.931C114.195 129.344 114.067 128.911 113.812 128.633C113.561 128.35 113.158 128.209 112.602 128.209C111.978 128.209 111.271 128.4 110.483 128.783L110.134 127.915C110.504 127.714 110.907 127.557 111.344 127.443C111.786 127.329 112.228 127.272 112.671 127.272C113.564 127.272 114.225 127.47 114.653 127.867C115.086 128.263 115.302 128.899 115.302 129.774V134.887H114.462ZM111.898 134.088C112.604 134.088 113.158 133.894 113.559 133.507C113.965 133.119 114.168 132.577 114.168 131.88V131.203L113.033 131.251C112.13 131.283 111.479 131.424 111.078 131.675C110.681 131.921 110.483 132.306 110.483 132.83C110.483 133.24 110.606 133.552 110.852 133.766C111.103 133.981 111.451 134.088 111.898 134.088ZM111.631 126.233C111.85 125.951 112.085 125.609 112.336 125.208C112.591 124.807 112.791 124.458 112.937 124.162H114.318V124.305C114.117 124.602 113.819 124.966 113.422 125.399C113.026 125.832 112.682 126.167 112.39 126.404H111.631V126.233ZM122.774 134.887V130.041C122.774 129.43 122.635 128.974 122.357 128.674C122.079 128.373 121.644 128.222 121.051 128.222C120.268 128.222 119.693 128.434 119.329 128.858C118.964 129.282 118.782 129.982 118.782 130.957V134.887H117.647V127.395H118.57L118.755 128.421H118.809C119.042 128.052 119.367 127.767 119.787 127.566C120.206 127.361 120.673 127.259 121.188 127.259C122.09 127.259 122.769 127.477 123.225 127.915C123.681 128.348 123.909 129.043 123.909 130V134.887H122.774ZM132.379 127.395V128.113L130.991 128.277C131.118 128.437 131.232 128.646 131.333 128.906C131.433 129.161 131.483 129.451 131.483 129.774C131.483 130.508 131.232 131.094 130.731 131.531C130.23 131.969 129.542 132.187 128.667 132.187C128.443 132.187 128.234 132.169 128.038 132.133C127.555 132.388 127.313 132.709 127.313 133.096C127.313 133.302 127.397 133.454 127.566 133.554C127.735 133.65 128.024 133.698 128.434 133.698H129.76C130.572 133.698 131.194 133.869 131.627 134.211C132.064 134.552 132.283 135.049 132.283 135.701C132.283 136.53 131.95 137.162 131.285 137.594C130.619 138.032 129.649 138.251 128.373 138.251C127.393 138.251 126.636 138.068 126.103 137.704C125.575 137.339 125.31 136.824 125.31 136.159C125.31 135.703 125.456 135.309 125.748 134.976C126.039 134.644 126.45 134.418 126.978 134.3C126.787 134.213 126.625 134.079 126.493 133.896C126.365 133.714 126.301 133.502 126.301 133.26C126.301 132.987 126.374 132.748 126.52 132.543C126.666 132.338 126.896 132.139 127.211 131.948C126.823 131.788 126.506 131.517 126.26 131.135C126.019 130.752 125.898 130.314 125.898 129.822C125.898 129.002 126.144 128.371 126.636 127.928C127.129 127.482 127.826 127.259 128.728 127.259C129.12 127.259 129.473 127.304 129.788 127.395H132.379ZM126.404 136.145C126.404 136.551 126.575 136.858 126.917 137.068C127.258 137.278 127.748 137.383 128.386 137.383C129.339 137.383 130.043 137.239 130.499 136.952C130.959 136.669 131.189 136.284 131.189 135.797C131.189 135.391 131.064 135.108 130.813 134.949C130.562 134.794 130.091 134.717 129.398 134.717H128.038C127.523 134.717 127.122 134.84 126.835 135.086C126.547 135.332 126.404 135.685 126.404 136.145ZM127.019 129.795C127.019 130.319 127.167 130.715 127.464 130.984C127.76 131.253 128.172 131.387 128.701 131.387C129.808 131.387 130.362 130.85 130.362 129.774C130.362 128.649 129.801 128.086 128.68 128.086C128.147 128.086 127.737 128.229 127.45 128.516C127.163 128.803 127.019 129.23 127.019 129.795Z" fill="white"/>
<g filter="url(#filter1_d_64_8)">
<rect x="339.921" y="100.99" width="204" height="57" rx="4" fill="white" shape-rendering="crispEdges"/>
<path d="M361.649 130.273H365.641V135.812C365.042 136.015 364.425 136.166 363.789 136.265C363.159 136.364 362.453 136.414 361.672 136.414C360.485 136.414 359.482 136.177 358.664 135.703C357.852 135.229 357.235 134.554 356.813 133.679C356.391 132.799 356.18 131.755 356.18 130.546C356.18 129.364 356.412 128.333 356.875 127.453C357.344 126.572 358.018 125.89 358.899 125.406C359.784 124.916 360.847 124.671 362.086 124.671C362.722 124.671 363.323 124.731 363.891 124.851C364.464 124.966 364.995 125.13 365.485 125.343L364.977 126.499C364.555 126.317 364.089 126.161 363.578 126.031C363.073 125.901 362.55 125.835 362.008 125.835C361.076 125.835 360.276 126.028 359.61 126.414C358.948 126.799 358.44 127.343 358.086 128.046C357.737 128.749 357.563 129.583 357.563 130.546C357.563 131.499 357.716 132.33 358.024 133.039C358.331 133.742 358.81 134.289 359.461 134.679C360.112 135.07 360.951 135.265 361.977 135.265C362.492 135.265 362.935 135.236 363.305 135.179C363.675 135.117 364.011 135.044 364.313 134.96V131.46H361.649V130.273ZM369.508 127.695V136.257H368.211V127.695H369.508ZM368.875 124.492C369.089 124.492 369.271 124.562 369.422 124.703C369.578 124.838 369.656 125.052 369.656 125.343C369.656 125.63 369.578 125.843 369.422 125.984C369.271 126.124 369.089 126.195 368.875 126.195C368.651 126.195 368.464 126.124 368.313 125.984C368.167 125.843 368.094 125.63 368.094 125.343C368.094 125.052 368.167 124.838 368.313 124.703C368.464 124.562 368.651 124.492 368.875 124.492ZM375.461 127.554C376.482 127.554 377.24 127.783 377.735 128.242C378.229 128.7 378.477 129.432 378.477 130.437V136.257H377.531L377.281 134.992H377.219C376.979 135.304 376.729 135.567 376.469 135.781C376.209 135.989 375.906 136.148 375.563 136.257C375.224 136.361 374.808 136.414 374.313 136.414C373.792 136.414 373.328 136.322 372.922 136.14C372.521 135.958 372.203 135.682 371.969 135.312C371.74 134.942 371.625 134.473 371.625 133.906C371.625 133.052 371.964 132.395 372.641 131.937C373.318 131.479 374.349 131.229 375.735 131.187L377.211 131.124V130.601C377.211 129.861 377.052 129.343 376.735 129.046C376.417 128.749 375.969 128.601 375.391 128.601C374.943 128.601 374.516 128.666 374.11 128.796C373.703 128.927 373.318 129.08 372.953 129.257L372.555 128.273C372.94 128.075 373.383 127.906 373.883 127.765C374.383 127.624 374.909 127.554 375.461 127.554ZM377.196 132.039L375.891 132.093C374.823 132.135 374.071 132.309 373.633 132.617C373.196 132.924 372.977 133.359 372.977 133.921C372.977 134.411 373.125 134.773 373.422 135.007C373.719 135.242 374.112 135.359 374.602 135.359C375.362 135.359 375.985 135.148 376.469 134.726C376.953 134.304 377.196 133.671 377.196 132.828V132.039ZM377.031 124.554C377.031 124.955 376.909 125.268 376.664 125.492C376.42 125.71 376.107 125.864 375.727 125.953L375.656 126.82H374.844L374.742 125.468C375.143 125.401 375.456 125.304 375.68 125.179C375.909 125.049 376.024 124.856 376.024 124.601C376.024 124.346 375.922 124.171 375.719 124.078C375.521 123.984 375.268 123.937 374.961 123.937C374.815 123.937 374.67 123.945 374.524 123.96C374.383 123.971 374.266 123.986 374.172 124.007V123.226C374.276 123.195 374.401 123.171 374.547 123.156C374.693 123.135 374.867 123.124 375.071 123.124C375.701 123.124 376.185 123.244 376.524 123.484C376.862 123.718 377.031 124.075 377.031 124.554ZM390.446 127.539C391.388 127.539 392.099 127.786 392.578 128.281C393.058 128.77 393.297 129.559 393.297 130.648V136.257H392.016V130.71C392.016 130.018 391.865 129.499 391.563 129.156C391.266 128.807 390.823 128.632 390.235 128.632C389.406 128.632 388.805 128.872 388.43 129.351C388.055 129.83 387.867 130.536 387.867 131.468V136.257H386.578V130.71C386.578 130.247 386.511 129.861 386.375 129.554C386.245 129.247 386.047 129.018 385.781 128.867C385.521 128.71 385.19 128.632 384.789 128.632C384.222 128.632 383.766 128.749 383.422 128.984C383.078 129.218 382.828 129.567 382.672 130.031C382.521 130.489 382.446 131.054 382.446 131.726V136.257H381.149V127.695H382.196L382.391 128.906H382.461C382.633 128.609 382.849 128.359 383.11 128.156C383.37 127.953 383.662 127.799 383.985 127.695C384.308 127.591 384.651 127.539 385.016 127.539C385.667 127.539 386.211 127.661 386.649 127.906C387.091 128.145 387.412 128.512 387.61 129.007H387.68C387.961 128.512 388.347 128.145 388.836 127.906C389.326 127.661 389.862 127.539 390.446 127.539ZM404.172 127.539C405.188 127.539 405.956 127.789 406.477 128.289C406.998 128.783 407.258 129.58 407.258 130.679V136.257H405.977V130.765C405.977 130.052 405.813 129.518 405.485 129.164C405.162 128.809 404.664 128.632 403.992 128.632C403.045 128.632 402.378 128.901 401.992 129.437C401.607 129.973 401.414 130.752 401.414 131.773V136.257H400.117V127.695H401.164L401.36 128.929H401.43C401.612 128.627 401.844 128.374 402.125 128.171C402.406 127.963 402.722 127.807 403.071 127.703C403.42 127.593 403.787 127.539 404.172 127.539ZM412.321 140.101C411.196 140.101 410.328 139.89 409.719 139.468C409.11 139.052 408.805 138.466 408.805 137.71C408.805 137.174 408.974 136.716 409.313 136.335C409.656 135.955 410.13 135.703 410.735 135.578C410.511 135.473 410.318 135.317 410.156 135.109C410 134.901 409.922 134.661 409.922 134.39C409.922 134.078 410.008 133.804 410.18 133.57C410.357 133.33 410.625 133.101 410.985 132.882C410.537 132.7 410.172 132.393 409.891 131.96C409.615 131.523 409.477 131.015 409.477 130.437C409.477 129.822 409.604 129.299 409.86 128.867C410.115 128.429 410.485 128.096 410.969 127.867C411.453 127.637 412.039 127.523 412.727 127.523C412.878 127.523 413.029 127.531 413.18 127.546C413.336 127.557 413.485 127.575 413.625 127.601C413.766 127.622 413.888 127.648 413.992 127.679H416.93V128.515L415.352 128.71C415.508 128.914 415.638 129.158 415.742 129.445C415.847 129.731 415.899 130.049 415.899 130.398C415.899 131.252 415.61 131.932 415.031 132.437C414.453 132.937 413.659 133.187 412.649 133.187C412.409 133.187 412.164 133.166 411.914 133.124C411.659 133.265 411.464 133.421 411.328 133.593C411.198 133.765 411.133 133.963 411.133 134.187C411.133 134.354 411.183 134.486 411.281 134.585C411.386 134.684 411.534 134.757 411.727 134.804C411.92 134.846 412.151 134.867 412.422 134.867H413.93C414.862 134.867 415.576 135.062 416.071 135.453C416.571 135.843 416.821 136.414 416.821 137.164C416.821 138.111 416.435 138.838 415.664 139.343C414.893 139.848 413.779 140.101 412.321 140.101ZM412.36 139.085C413.068 139.085 413.654 139.012 414.117 138.867C414.586 138.726 414.935 138.52 415.164 138.249C415.399 137.984 415.516 137.666 415.516 137.296C415.516 136.953 415.438 136.692 415.281 136.515C415.125 136.343 414.896 136.229 414.594 136.171C414.292 136.109 413.922 136.078 413.485 136.078H412C411.615 136.078 411.279 136.137 410.992 136.257C410.706 136.377 410.485 136.554 410.328 136.789C410.177 137.023 410.102 137.315 410.102 137.664C410.102 138.127 410.297 138.479 410.688 138.718C411.078 138.963 411.636 139.085 412.36 139.085ZM412.696 132.242C413.315 132.242 413.781 132.085 414.094 131.773C414.406 131.46 414.563 131.005 414.563 130.406C414.563 129.765 414.404 129.286 414.086 128.968C413.768 128.645 413.3 128.484 412.68 128.484C412.086 128.484 411.628 128.651 411.305 128.984C410.987 129.312 410.828 129.794 410.828 130.429C410.828 131.012 410.99 131.46 411.313 131.773C411.636 132.085 412.097 132.242 412.696 132.242ZM421.821 127.554C422.841 127.554 423.599 127.783 424.094 128.242C424.589 128.7 424.836 129.432 424.836 130.437V136.257H423.891L423.641 134.992H423.578C423.339 135.304 423.089 135.567 422.828 135.781C422.568 135.989 422.266 136.148 421.922 136.257C421.584 136.361 421.167 136.414 420.672 136.414C420.151 136.414 419.688 136.322 419.281 136.14C418.88 135.958 418.563 135.682 418.328 135.312C418.099 134.942 417.985 134.473 417.985 133.906C417.985 133.052 418.323 132.395 419 131.937C419.677 131.479 420.709 131.229 422.094 131.187L423.571 131.124V130.601C423.571 129.861 423.412 129.343 423.094 129.046C422.776 128.749 422.328 128.601 421.75 128.601C421.302 128.601 420.875 128.666 420.469 128.796C420.063 128.927 419.677 129.08 419.313 129.257L418.914 128.273C419.3 128.075 419.742 127.906 420.242 127.765C420.742 127.624 421.268 127.554 421.821 127.554ZM423.555 132.039L422.25 132.093C421.183 132.135 420.43 132.309 419.992 132.617C419.555 132.924 419.336 133.359 419.336 133.921C419.336 134.411 419.485 134.773 419.781 135.007C420.078 135.242 420.472 135.359 420.961 135.359C421.722 135.359 422.344 135.148 422.828 134.726C423.313 134.304 423.555 133.671 423.555 132.828V132.039ZM426.156 127.695H427.547L429.438 132.664C429.547 132.955 429.649 133.236 429.742 133.507C429.836 133.773 429.92 134.028 429.992 134.273C430.065 134.518 430.123 134.755 430.164 134.984H430.219C430.292 134.723 430.396 134.382 430.531 133.96C430.667 133.533 430.813 133.098 430.969 132.656L432.758 127.695H434.156L430.43 137.515C430.232 138.041 430 138.499 429.735 138.89C429.474 139.281 429.156 139.58 428.781 139.789C428.406 140.002 427.953 140.109 427.422 140.109C427.177 140.109 426.961 140.093 426.774 140.062C426.586 140.036 426.425 140.005 426.289 139.968V138.929C426.404 138.955 426.542 138.979 426.703 138.999C426.87 139.02 427.042 139.031 427.219 139.031C427.542 139.031 427.821 138.968 428.055 138.843C428.295 138.723 428.5 138.546 428.672 138.312C428.844 138.078 428.992 137.799 429.117 137.476L429.586 136.273L426.156 127.695ZM484.092 136.414C483.321 136.414 482.642 136.255 482.053 135.937C481.464 135.619 481.006 135.135 480.678 134.484C480.35 133.833 480.186 133.012 480.186 132.023C480.186 130.986 480.358 130.14 480.701 129.484C481.05 128.822 481.53 128.333 482.139 128.015C482.748 127.697 483.441 127.539 484.217 127.539C484.644 127.539 485.056 127.583 485.451 127.671C485.852 127.755 486.181 127.861 486.436 127.992L486.045 129.078C485.785 128.973 485.483 128.88 485.139 128.796C484.8 128.713 484.483 128.671 484.186 128.671C483.592 128.671 483.097 128.799 482.701 129.054C482.311 129.309 482.017 129.684 481.819 130.179C481.626 130.674 481.53 131.283 481.53 132.007C481.53 132.7 481.623 133.291 481.811 133.781C482.003 134.27 482.287 134.645 482.662 134.906C483.043 135.161 483.517 135.289 484.084 135.289C484.537 135.289 484.946 135.242 485.311 135.148C485.675 135.049 486.006 134.934 486.303 134.804V135.96C486.017 136.106 485.696 136.218 485.342 136.296C484.993 136.374 484.576 136.414 484.092 136.414ZM489.631 124.101V127.734C489.631 127.942 489.626 128.153 489.615 128.367C489.605 128.575 489.587 128.768 489.561 128.945H489.647C489.824 128.643 490.048 128.39 490.319 128.187C490.595 127.979 490.907 127.822 491.256 127.718C491.605 127.609 491.975 127.554 492.365 127.554C493.053 127.554 493.626 127.664 494.084 127.882C494.548 128.101 494.894 128.44 495.123 128.898C495.358 129.356 495.475 129.95 495.475 130.679V136.257H494.194V130.765C494.194 130.052 494.03 129.518 493.701 129.164C493.378 128.809 492.881 128.632 492.209 128.632C491.574 128.632 491.066 128.755 490.686 128.999C490.311 129.239 490.04 129.593 489.873 130.062C489.712 130.531 489.631 131.104 489.631 131.781V136.257H488.334V124.101H489.631ZM499.444 127.695V136.257H498.147V127.695H499.444ZM498.811 124.492C499.024 124.492 499.207 124.562 499.358 124.703C499.514 124.838 499.592 125.052 499.592 125.343C499.592 125.63 499.514 125.843 499.358 125.984C499.207 126.124 499.024 126.195 498.811 126.195C498.587 126.195 498.399 126.124 498.248 125.984C498.102 125.843 498.03 125.63 498.03 125.343C498.03 125.052 498.102 124.838 498.248 124.703C498.399 124.562 498.587 124.492 498.811 124.492ZM510.373 127.539C511.441 127.539 512.293 127.906 512.928 128.64C513.563 129.374 513.881 130.479 513.881 131.953C513.881 132.927 513.735 133.744 513.444 134.406C513.152 135.067 512.74 135.567 512.209 135.906C511.683 136.244 511.061 136.414 510.342 136.414C509.889 136.414 509.49 136.354 509.147 136.234C508.803 136.114 508.509 135.953 508.264 135.749C508.019 135.546 507.816 135.325 507.655 135.085H507.561C507.576 135.289 507.595 135.533 507.615 135.82C507.642 136.106 507.655 136.356 507.655 136.57V140.085H506.35V127.695H507.42L507.592 128.96H507.655C507.821 128.7 508.024 128.463 508.264 128.249C508.503 128.031 508.795 127.859 509.139 127.734C509.488 127.604 509.899 127.539 510.373 127.539ZM510.147 128.632C509.553 128.632 509.074 128.747 508.709 128.976C508.35 129.205 508.087 129.549 507.92 130.007C507.753 130.46 507.665 131.031 507.655 131.718V131.968C507.655 132.692 507.733 133.304 507.889 133.804C508.05 134.304 508.313 134.684 508.678 134.945C509.048 135.205 509.543 135.335 510.162 135.335C510.694 135.335 511.136 135.192 511.49 134.906C511.845 134.619 512.108 134.221 512.28 133.71C512.457 133.195 512.545 132.604 512.545 131.937C512.545 130.927 512.347 130.124 511.951 129.531C511.561 128.932 510.959 128.632 510.147 128.632ZM517.444 124.101V127.734C517.444 127.942 517.438 128.153 517.428 128.367C517.418 128.575 517.399 128.768 517.373 128.945H517.459C517.636 128.643 517.86 128.39 518.131 128.187C518.407 127.979 518.72 127.822 519.069 127.718C519.418 127.609 519.787 127.554 520.178 127.554C520.865 127.554 521.438 127.664 521.897 127.882C522.36 128.101 522.707 128.44 522.936 128.898C523.17 129.356 523.287 129.95 523.287 130.679V136.257H522.006V130.765C522.006 130.052 521.842 129.518 521.514 129.164C521.191 128.809 520.694 128.632 520.022 128.632C519.386 128.632 518.878 128.755 518.498 128.999C518.123 129.239 517.852 129.593 517.686 130.062C517.524 130.531 517.444 131.104 517.444 131.781V136.257H516.147V124.101H517.444ZM527.256 136.257H525.959V127.695H527.256V136.257ZM528.873 123.999V124.156C528.769 124.307 528.626 124.489 528.444 124.703C528.267 124.911 528.069 125.132 527.85 125.367C527.631 125.596 527.41 125.815 527.186 126.023C526.967 126.231 526.764 126.411 526.576 126.562H525.709V126.374C525.876 126.177 526.058 125.94 526.256 125.664C526.454 125.382 526.647 125.096 526.834 124.804C527.022 124.507 527.178 124.239 527.303 123.999H528.873Z" fill="#545454"/>
<path d="M445.748 136.257H443.032V128.822C443.032 128.617 443.035 128.365 443.041 128.066C443.047 127.761 443.056 127.451 443.068 127.134C443.079 126.812 443.091 126.522 443.103 126.264C443.038 126.34 442.906 126.472 442.707 126.66C442.514 126.841 442.332 127.005 442.162 127.152L440.686 128.338L439.376 126.704L443.516 123.408H445.748V136.257ZM458.246 129.832C458.246 130.87 458.164 131.795 458 132.61C457.842 133.424 457.584 134.116 457.227 134.684C456.875 135.252 456.412 135.686 455.838 135.985C455.264 136.284 454.567 136.433 453.746 136.433C452.715 136.433 451.868 136.172 451.206 135.651C450.544 135.123 450.055 134.368 449.739 133.383C449.422 132.393 449.264 131.209 449.264 129.832C449.264 128.444 449.407 127.257 449.695 126.273C449.988 125.283 450.462 124.524 451.118 123.997C451.775 123.469 452.651 123.206 453.746 123.206C454.772 123.206 455.615 123.469 456.278 123.997C456.946 124.518 457.441 125.274 457.763 126.264C458.085 127.248 458.246 128.438 458.246 129.832ZM451.962 129.832C451.962 130.811 452.015 131.628 452.12 132.285C452.232 132.935 452.416 133.424 452.674 133.752C452.932 134.081 453.289 134.245 453.746 134.245C454.198 134.245 454.552 134.083 454.81 133.761C455.073 133.433 455.261 132.944 455.372 132.293C455.484 131.637 455.539 130.817 455.539 129.832C455.539 128.854 455.484 128.037 455.372 127.38C455.261 126.724 455.073 126.232 454.81 125.904C454.552 125.57 454.198 125.403 453.746 125.403C453.289 125.403 452.932 125.57 452.674 125.904C452.416 126.232 452.232 126.724 452.12 127.38C452.015 128.037 451.962 128.854 451.962 129.832ZM462.5 123.223C463.508 123.223 464.273 123.575 464.794 124.278C465.316 124.981 465.576 125.968 465.576 127.24C465.576 128.511 465.33 129.504 464.838 130.219C464.346 130.934 463.567 131.291 462.5 131.291C461.51 131.291 460.757 130.934 460.241 130.219C459.726 129.504 459.468 128.511 459.468 127.24C459.468 125.968 459.708 124.981 460.189 124.278C460.675 123.575 461.446 123.223 462.5 123.223ZM462.518 125.06C462.231 125.06 462.02 125.242 461.885 125.605C461.75 125.968 461.683 126.519 461.683 127.257C461.683 127.996 461.75 128.549 461.885 128.918C462.02 129.288 462.231 129.472 462.518 129.472C462.805 129.472 463.016 129.29 463.151 128.927C463.291 128.558 463.362 128.001 463.362 127.257C463.362 126.519 463.291 125.968 463.151 125.605C463.016 125.242 462.805 125.06 462.518 125.06ZM471.623 123.408L464.495 136.257H462.386L469.514 123.408H471.623ZM471.5 128.356C472.508 128.356 473.273 128.707 473.794 129.411C474.316 130.114 474.576 131.101 474.576 132.373C474.576 133.638 474.33 134.628 473.838 135.343C473.346 136.058 472.567 136.415 471.5 136.415C470.51 136.415 469.757 136.058 469.241 135.343C468.726 134.628 468.468 133.638 468.468 132.373C468.468 131.101 468.708 130.114 469.189 129.411C469.675 128.707 470.446 128.356 471.5 128.356ZM471.518 130.193C471.231 130.193 471.02 130.374 470.885 130.738C470.75 131.101 470.683 131.652 470.683 132.39C470.683 133.128 470.75 133.682 470.885 134.051C471.02 134.42 471.231 134.605 471.518 134.605C471.805 134.605 472.016 134.423 472.151 134.06C472.291 133.691 472.362 133.134 472.362 132.39C472.362 131.652 472.291 131.101 472.151 130.738C472.016 130.374 471.805 130.193 471.518 130.193Z" fill="#E97730"/>
</g>
<path opacity="0.7" d="M364.463 195.908L0.814148 199.941V243.076L364.463 239.042V251.992C364.463 252.172 364.683 252.26 364.807 252.13L402.186 213.124L364.789 182.755C364.658 182.648 364.463 182.741 364.463 182.91V195.908Z" fill="#E97730"/>
<path d="M16.1813 225.728H15.0192V216.766H11.8541V215.734H19.3463V216.766H16.1813V225.728ZM24.1041 218.099C24.4368 218.099 24.7353 218.127 24.9996 218.181L24.8424 219.234C24.5325 219.166 24.2591 219.131 24.0221 219.131C23.416 219.131 22.8964 219.377 22.4635 219.87C22.0351 220.362 21.8209 220.975 21.8209 221.709V225.728H20.6862V218.236H21.6227L21.7526 219.624H21.8073C22.0852 219.136 22.4202 218.76 22.8121 218.496C23.2041 218.231 23.6347 218.099 24.1041 218.099ZM31.0084 225.728L30.7828 224.662H30.7281C30.3545 225.131 29.9808 225.45 29.6071 225.619C29.2379 225.783 28.7753 225.865 28.2194 225.865C27.4765 225.865 26.8932 225.673 26.4694 225.291C26.0501 224.908 25.8405 224.363 25.8405 223.657C25.8405 222.144 27.0504 221.351 29.4703 221.278L30.7418 221.237V220.772C30.7418 220.184 30.6142 219.751 30.359 219.473C30.1084 219.191 29.705 219.049 29.149 219.049C28.5247 219.049 27.8183 219.241 27.0299 219.624L26.6813 218.755C27.0504 218.555 27.4537 218.398 27.8912 218.284C28.3333 218.17 28.7753 218.113 29.2174 218.113C30.1106 218.113 30.7714 218.311 31.1998 218.708C31.6328 219.104 31.8492 219.74 31.8492 220.615V225.728H31.0084ZM28.4449 224.928C29.1513 224.928 29.705 224.735 30.1061 224.347C30.5117 223.96 30.7145 223.418 30.7145 222.72V222.044L29.5797 222.091C28.6774 222.123 28.0257 222.265 27.6246 222.515C27.2281 222.761 27.0299 223.146 27.0299 223.67C27.0299 224.081 27.153 224.393 27.399 224.607C27.6497 224.821 27.9983 224.928 28.4449 224.928ZM30.6188 215.508C30.6188 216.146 30.2405 216.543 29.484 216.698L29.4156 217.47H28.6979L28.6158 216.267C29.0078 216.203 29.2926 216.114 29.4703 216.001C29.6481 215.887 29.7369 215.732 29.7369 215.536C29.7369 215.34 29.6595 215.196 29.5045 215.105C29.3541 215.009 29.1126 214.961 28.7799 214.961C28.4974 214.961 28.2832 214.975 28.1373 215.002V214.319C28.3105 214.273 28.5543 214.251 28.8688 214.251C30.0354 214.251 30.6188 214.67 30.6188 215.508ZM40.2506 224.928C40.4511 224.928 40.6448 224.915 40.8317 224.887C41.0185 224.855 41.1666 224.823 41.276 224.792V225.66C41.153 225.719 40.9707 225.767 40.7291 225.803C40.4921 225.844 40.278 225.865 40.0865 225.865C38.6373 225.865 37.9127 225.101 37.9127 223.575V219.118H36.8395V218.571L37.9127 218.099L38.3912 216.5H39.0475V218.236H41.2213V219.118H39.0475V223.527C39.0475 223.978 39.1546 224.324 39.3688 224.566C39.583 224.808 39.8769 224.928 40.2506 224.928ZM46.1979 218.099C46.5306 218.099 46.8291 218.127 47.0934 218.181L46.9362 219.234C46.6263 219.166 46.3528 219.131 46.1158 219.131C45.5097 219.131 44.9902 219.377 44.5573 219.87C44.1289 220.362 43.9147 220.975 43.9147 221.709V225.728H42.7799V218.236H43.7164L43.8463 219.624H43.901C44.179 219.136 44.514 218.76 44.9059 218.496C45.2978 218.231 45.7285 218.099 46.1979 218.099ZM49.5612 218.25V223.096C49.5612 223.707 49.7002 224.163 49.9781 224.463C50.2561 224.764 50.6914 224.915 51.2838 224.915C52.0677 224.915 52.6396 224.7 52.9996 224.272C53.3642 223.844 53.5465 223.144 53.5465 222.173V218.25H54.6813V219.077C55.055 219.027 55.3261 218.856 55.4948 218.564C55.6634 218.272 55.7477 217.776 55.7477 217.074H56.9645L57.067 217.231C56.9212 218.079 56.6477 218.721 56.2467 219.159C55.8457 219.592 55.3239 219.84 54.6813 219.904V225.728H53.7448L53.5807 224.723H53.5192C53.2822 225.097 52.9563 225.382 52.5416 225.578C52.1315 225.769 51.6735 225.865 51.1676 225.865C50.2425 225.865 49.552 225.648 49.0963 225.215C48.6406 224.782 48.4127 224.09 48.4127 223.137V218.25H49.5612ZM64.2721 221.975C64.2721 223.196 63.9645 224.151 63.3492 224.839C62.734 225.523 61.8841 225.865 60.7994 225.865C60.1295 225.865 59.5348 225.708 59.0153 225.393C58.4957 225.079 58.0947 224.627 57.8121 224.04C57.5296 223.452 57.3883 222.764 57.3883 221.975C57.3883 220.754 57.6936 219.804 58.3043 219.125C58.915 218.441 59.7627 218.099 60.8473 218.099C61.8362 218.099 62.6429 218.42 63.2672 219.063C63.4996 218.995 63.6819 218.888 63.8141 218.742C63.9462 218.591 64.042 218.405 64.1012 218.181C64.1604 217.953 64.1901 217.589 64.1901 217.087H65.4205L65.5231 217.245C65.3818 217.956 65.1722 218.512 64.8942 218.913C64.6207 219.309 64.2516 219.594 63.7867 219.767C64.1103 220.396 64.2721 221.132 64.2721 221.975ZM58.5641 221.975C58.5641 222.937 58.7441 223.668 59.1041 224.169C59.4642 224.666 60.0384 224.915 60.8268 224.915C61.6243 224.915 62.2008 224.666 62.5563 224.169C62.9163 223.668 63.0963 222.937 63.0963 221.975C63.0963 221.018 62.914 220.294 62.5494 219.801C62.1894 219.309 61.6106 219.063 60.8131 219.063C60.0247 219.063 59.4528 219.309 59.0973 219.801C58.7418 220.294 58.5641 221.018 58.5641 221.975ZM60.0338 217.074C60.2526 216.791 60.4873 216.449 60.7379 216.048C60.9931 215.647 61.1936 215.299 61.3395 215.002H62.7203V215.146C62.5198 215.442 62.2213 215.807 61.8248 216.24C61.4283 216.673 61.0843 217.008 60.7926 217.245H60.0338V217.074ZM69.3307 225.865C68.2461 225.865 67.4052 225.532 66.8082 224.867C66.2158 224.197 65.9196 223.251 65.9196 222.03C65.9196 220.777 66.2203 219.808 66.8219 219.125C67.428 218.441 68.2893 218.099 69.4059 218.099C69.7659 218.099 70.1259 218.138 70.486 218.215C70.846 218.293 71.1285 218.384 71.3336 218.489L70.985 219.453C70.7343 219.352 70.4609 219.27 70.1647 219.207C69.8684 219.138 69.6064 219.104 69.3785 219.104C67.8564 219.104 67.0953 220.075 67.0953 222.016C67.0953 222.937 67.2799 223.643 67.649 224.135C68.0227 224.627 68.5742 224.874 69.3033 224.874C69.9277 224.874 70.568 224.739 71.2242 224.47V225.475C70.7229 225.735 70.0918 225.865 69.3307 225.865ZM82.6949 225.728H76.1256V224.751L78.7574 222.105C79.5595 221.294 80.0882 220.715 80.3434 220.369C80.5986 220.022 80.79 219.685 80.9176 219.357C81.0452 219.029 81.109 218.676 81.109 218.297C81.109 217.764 80.9472 217.343 80.6237 217.033C80.3001 216.718 79.8512 216.561 79.277 216.561C78.8623 216.561 78.4681 216.629 78.0944 216.766C77.7252 216.903 77.3128 217.151 76.8571 217.511L76.2555 216.739C77.1761 215.973 78.1787 215.59 79.2633 215.59C80.2021 215.59 80.9381 215.832 81.4713 216.315C82.0045 216.794 82.2711 217.438 82.2711 218.25C82.2711 218.883 82.0934 219.51 81.7379 220.129C81.3824 220.749 80.7171 221.533 79.7418 222.481L77.5543 224.621V224.675H82.6949V225.728ZM91.1783 223.431H89.6949V225.728H88.608V223.431H83.7477V222.44L88.4918 215.679H89.6949V222.399H91.1783V223.431ZM88.608 222.399V219.077C88.608 218.425 88.6308 217.689 88.6764 216.869H88.6217C88.403 217.306 88.1979 217.669 88.0065 217.956L84.8824 222.399H88.608ZM98.7252 224.928C98.9257 224.928 99.1194 224.915 99.3063 224.887C99.4931 224.855 99.6412 224.823 99.7506 224.792V225.66C99.6276 225.719 99.4453 225.767 99.2037 225.803C98.9668 225.844 98.7526 225.865 98.5612 225.865C97.1119 225.865 96.3873 225.101 96.3873 223.575V219.118H95.3141V218.571L96.3873 218.099L96.8658 216.5H97.5221V218.236H99.6959V219.118H97.5221V223.527C97.5221 223.978 97.6292 224.324 97.8434 224.566C98.0576 224.808 98.3515 224.928 98.7252 224.928ZM106.381 225.728V220.881C106.381 220.271 106.242 219.815 105.964 219.514C105.686 219.213 105.251 219.063 104.659 219.063C103.87 219.063 103.294 219.277 102.929 219.706C102.569 220.134 102.389 220.836 102.389 221.811V225.728H101.255V215.091H102.389V218.311C102.389 218.698 102.371 219.02 102.335 219.275H102.403C102.626 218.915 102.943 218.632 103.353 218.427C103.768 218.218 104.24 218.113 104.768 218.113C105.684 218.113 106.37 218.332 106.826 218.769C107.286 219.202 107.516 219.892 107.516 220.84V225.728H106.381ZM114.462 225.728L114.236 224.662H114.181C113.808 225.131 113.434 225.45 113.06 225.619C112.691 225.783 112.228 225.865 111.672 225.865C110.93 225.865 110.346 225.673 109.922 225.291C109.503 224.908 109.294 224.363 109.294 223.657C109.294 222.144 110.504 221.351 112.923 221.278L114.195 221.237V220.772C114.195 220.184 114.067 219.751 113.812 219.473C113.561 219.191 113.158 219.049 112.602 219.049C111.978 219.049 111.271 219.241 110.483 219.624L110.134 218.755C110.504 218.555 110.907 218.398 111.344 218.284C111.786 218.17 112.228 218.113 112.671 218.113C113.564 218.113 114.225 218.311 114.653 218.708C115.086 219.104 115.302 219.74 115.302 220.615V225.728H114.462ZM111.898 224.928C112.604 224.928 113.158 224.735 113.559 224.347C113.965 223.96 114.168 223.418 114.168 222.72V222.044L113.033 222.091C112.13 222.123 111.479 222.265 111.078 222.515C110.681 222.761 110.483 223.146 110.483 223.67C110.483 224.081 110.606 224.393 110.852 224.607C111.103 224.821 111.451 224.928 111.898 224.928ZM111.631 217.074C111.85 216.791 112.085 216.449 112.336 216.048C112.591 215.647 112.791 215.299 112.937 215.002H114.318V215.146C114.117 215.442 113.819 215.807 113.422 216.24C113.026 216.673 112.682 217.008 112.39 217.245H111.631V217.074ZM122.774 225.728V220.881C122.774 220.271 122.635 219.815 122.357 219.514C122.079 219.213 121.644 219.063 121.051 219.063C120.268 219.063 119.693 219.275 119.329 219.699C118.964 220.123 118.782 220.822 118.782 221.797V225.728H117.647V218.236H118.57L118.755 219.261H118.809C119.042 218.892 119.367 218.607 119.787 218.407C120.206 218.202 120.673 218.099 121.188 218.099C122.09 218.099 122.769 218.318 123.225 218.755C123.681 219.188 123.909 219.883 123.909 220.84V225.728H122.774ZM132.379 218.236V218.954L130.991 219.118C131.118 219.277 131.232 219.487 131.333 219.747C131.433 220.002 131.483 220.291 131.483 220.615C131.483 221.349 131.232 221.934 130.731 222.372C130.23 222.809 129.542 223.028 128.667 223.028C128.443 223.028 128.234 223.01 128.038 222.973C127.555 223.228 127.313 223.55 127.313 223.937C127.313 224.142 127.397 224.295 127.566 224.395C127.735 224.491 128.024 224.539 128.434 224.539H129.76C130.572 224.539 131.194 224.71 131.627 225.051C132.064 225.393 132.283 225.89 132.283 226.542C132.283 227.371 131.95 228.002 131.285 228.435C130.619 228.873 129.649 229.091 128.373 229.091C127.393 229.091 126.636 228.909 126.103 228.544C125.575 228.18 125.31 227.665 125.31 227C125.31 226.544 125.456 226.15 125.748 225.817C126.039 225.484 126.45 225.259 126.978 225.14C126.787 225.054 126.625 224.919 126.493 224.737C126.365 224.555 126.301 224.343 126.301 224.101C126.301 223.828 126.374 223.588 126.52 223.383C126.666 223.178 126.896 222.98 127.211 222.789C126.823 222.629 126.506 222.358 126.26 221.975C126.019 221.592 125.898 221.155 125.898 220.663C125.898 219.842 126.144 219.211 126.636 218.769C127.129 218.322 127.826 218.099 128.728 218.099C129.12 218.099 129.473 218.145 129.788 218.236H132.379ZM126.404 226.986C126.404 227.391 126.575 227.699 126.917 227.909C127.258 228.118 127.748 228.223 128.386 228.223C129.339 228.223 130.043 228.08 130.499 227.793C130.959 227.51 131.189 227.125 131.189 226.637C131.189 226.232 131.064 225.949 130.813 225.79C130.562 225.635 130.091 225.557 129.398 225.557H128.038C127.523 225.557 127.122 225.68 126.835 225.926C126.547 226.172 126.404 226.526 126.404 226.986ZM127.019 220.635C127.019 221.159 127.167 221.556 127.464 221.825C127.76 222.094 128.172 222.228 128.701 222.228C129.808 222.228 130.362 221.69 130.362 220.615C130.362 219.489 129.801 218.926 128.68 218.926C128.147 218.926 127.737 219.07 127.45 219.357C127.163 219.644 127.019 220.07 127.019 220.635Z" fill="white"/>
<g filter="url(#filter2_d_64_8)">
<rect x="419.186" y="188.99" width="204" height="57" rx="4" fill="white" shape-rendering="crispEdges"/>
<path d="M440.913 218.273H444.906V223.812C444.307 224.015 443.689 224.166 443.054 224.265C442.424 224.364 441.718 224.414 440.937 224.414C439.749 224.414 438.747 224.177 437.929 223.703C437.117 223.229 436.499 222.554 436.077 221.679C435.656 220.799 435.445 219.755 435.445 218.546C435.445 217.364 435.676 216.333 436.14 215.453C436.609 214.572 437.283 213.89 438.163 213.406C439.049 212.916 440.111 212.671 441.351 212.671C441.986 212.671 442.588 212.731 443.156 212.851C443.729 212.966 444.26 213.13 444.749 213.343L444.242 214.499C443.82 214.317 443.354 214.161 442.843 214.031C442.338 213.9 441.814 213.835 441.273 213.835C440.341 213.835 439.541 214.028 438.874 214.414C438.213 214.799 437.705 215.343 437.351 216.046C437.002 216.749 436.827 217.583 436.827 218.546C436.827 219.499 436.981 220.33 437.288 221.039C437.596 221.742 438.075 222.289 438.726 222.679C439.377 223.07 440.216 223.265 441.242 223.265C441.757 223.265 442.2 223.236 442.57 223.179C442.939 223.117 443.275 223.044 443.577 222.96V219.46H440.913V218.273ZM448.773 215.695V224.257H447.476V215.695H448.773ZM448.14 212.492C448.354 212.492 448.536 212.562 448.687 212.703C448.843 212.838 448.921 213.052 448.921 213.343C448.921 213.63 448.843 213.843 448.687 213.984C448.536 214.124 448.354 214.195 448.14 214.195C447.916 214.195 447.729 214.124 447.577 213.984C447.432 213.843 447.359 213.63 447.359 213.343C447.359 213.052 447.432 212.838 447.577 212.703C447.729 212.562 447.916 212.492 448.14 212.492ZM454.726 215.554C455.747 215.554 456.505 215.783 456.999 216.242C457.494 216.7 457.742 217.432 457.742 218.437V224.257H456.796L456.546 222.992H456.484C456.244 223.304 455.994 223.567 455.734 223.781C455.473 223.989 455.171 224.148 454.827 224.257C454.489 224.361 454.072 224.414 453.577 224.414C453.057 224.414 452.593 224.322 452.187 224.14C451.786 223.958 451.468 223.682 451.234 223.312C451.005 222.942 450.89 222.473 450.89 221.906C450.89 221.052 451.229 220.395 451.906 219.937C452.583 219.479 453.614 219.229 454.999 219.187L456.476 219.124V218.601C456.476 217.861 456.317 217.343 455.999 217.046C455.682 216.749 455.234 216.601 454.656 216.601C454.208 216.601 453.781 216.666 453.374 216.796C452.968 216.927 452.583 217.08 452.218 217.257L451.82 216.273C452.205 216.075 452.648 215.906 453.148 215.765C453.648 215.624 454.174 215.554 454.726 215.554ZM456.46 220.039L455.156 220.093C454.088 220.135 453.335 220.309 452.898 220.617C452.46 220.924 452.242 221.359 452.242 221.921C452.242 222.411 452.39 222.773 452.687 223.007C452.984 223.242 453.377 223.359 453.867 223.359C454.627 223.359 455.249 223.148 455.734 222.726C456.218 222.304 456.46 221.671 456.46 220.828V220.039ZM456.296 212.554C456.296 212.955 456.174 213.268 455.929 213.492C455.684 213.71 455.372 213.864 454.992 213.953L454.921 214.82H454.109L454.007 213.468C454.408 213.4 454.721 213.304 454.945 213.179C455.174 213.049 455.288 212.856 455.288 212.601C455.288 212.346 455.187 212.171 454.984 212.078C454.786 211.984 454.533 211.937 454.226 211.937C454.08 211.937 453.934 211.945 453.788 211.96C453.648 211.971 453.531 211.986 453.437 212.007V211.226C453.541 211.195 453.666 211.171 453.812 211.156C453.958 211.135 454.132 211.124 454.335 211.124C454.966 211.124 455.45 211.244 455.788 211.484C456.127 211.718 456.296 212.075 456.296 212.554ZM469.71 215.539C470.653 215.539 471.364 215.786 471.843 216.281C472.322 216.77 472.562 217.559 472.562 218.648V224.257H471.281V218.71C471.281 218.018 471.13 217.499 470.827 217.156C470.531 216.807 470.088 216.632 469.499 216.632C468.671 216.632 468.07 216.872 467.695 217.351C467.32 217.83 467.132 218.536 467.132 219.468V224.257H465.843V218.71C465.843 218.247 465.775 217.861 465.64 217.554C465.51 217.247 465.312 217.018 465.046 216.867C464.786 216.71 464.455 216.632 464.054 216.632C463.486 216.632 463.031 216.749 462.687 216.984C462.343 217.218 462.093 217.567 461.937 218.031C461.786 218.489 461.71 219.054 461.71 219.726V224.257H460.413V215.695H461.46L461.656 216.906H461.726C461.898 216.609 462.114 216.359 462.374 216.156C462.635 215.953 462.926 215.799 463.249 215.695C463.572 215.591 463.916 215.539 464.281 215.539C464.932 215.539 465.476 215.661 465.913 215.906C466.356 216.145 466.676 216.512 466.874 217.007H466.945C467.226 216.512 467.611 216.145 468.101 215.906C468.591 215.661 469.127 215.539 469.71 215.539ZM483.437 215.539C484.452 215.539 485.221 215.789 485.742 216.289C486.262 216.783 486.523 217.58 486.523 218.679V224.257H485.242V218.765C485.242 218.052 485.077 217.518 484.749 217.164C484.426 216.809 483.929 216.632 483.257 216.632C482.309 216.632 481.643 216.9 481.257 217.437C480.872 217.973 480.679 218.752 480.679 219.773V224.257H479.382V215.695H480.429L480.624 216.929H480.695C480.877 216.627 481.109 216.374 481.39 216.171C481.671 215.963 481.986 215.807 482.335 215.703C482.684 215.593 483.051 215.539 483.437 215.539ZM491.585 228.101C490.46 228.101 489.593 227.89 488.984 227.468C488.374 227.052 488.07 226.466 488.07 225.71C488.07 225.174 488.239 224.716 488.577 224.335C488.921 223.955 489.395 223.703 489.999 223.578C489.775 223.473 489.583 223.317 489.421 223.109C489.265 222.9 489.187 222.661 489.187 222.39C489.187 222.078 489.273 221.804 489.445 221.57C489.622 221.33 489.89 221.101 490.249 220.882C489.801 220.7 489.437 220.393 489.156 219.96C488.88 219.523 488.742 219.015 488.742 218.437C488.742 217.822 488.869 217.299 489.124 216.867C489.38 216.429 489.749 216.096 490.234 215.867C490.718 215.637 491.304 215.523 491.992 215.523C492.143 215.523 492.294 215.531 492.445 215.546C492.601 215.557 492.749 215.575 492.89 215.601C493.031 215.622 493.153 215.648 493.257 215.679H496.195V216.515L494.617 216.71C494.773 216.914 494.903 217.158 495.007 217.445C495.111 217.731 495.163 218.049 495.163 218.398C495.163 219.252 494.874 219.932 494.296 220.437C493.718 220.937 492.924 221.187 491.913 221.187C491.674 221.187 491.429 221.166 491.179 221.124C490.924 221.265 490.729 221.421 490.593 221.593C490.463 221.765 490.398 221.963 490.398 222.187C490.398 222.354 490.447 222.486 490.546 222.585C490.65 222.684 490.799 222.757 490.992 222.804C491.184 222.846 491.416 222.867 491.687 222.867H493.195C494.127 222.867 494.841 223.062 495.335 223.453C495.835 223.843 496.085 224.414 496.085 225.164C496.085 226.111 495.7 226.838 494.929 227.343C494.158 227.848 493.044 228.101 491.585 228.101ZM491.624 227.085C492.333 227.085 492.919 227.012 493.382 226.867C493.851 226.726 494.2 226.52 494.429 226.249C494.663 225.984 494.781 225.666 494.781 225.296C494.781 224.953 494.702 224.692 494.546 224.515C494.39 224.343 494.161 224.229 493.859 224.171C493.557 224.109 493.187 224.078 492.749 224.078H491.265C490.88 224.078 490.544 224.137 490.257 224.257C489.971 224.377 489.749 224.554 489.593 224.789C489.442 225.023 489.367 225.315 489.367 225.664C489.367 226.127 489.562 226.479 489.952 226.718C490.343 226.963 490.9 227.085 491.624 227.085ZM491.96 220.242C492.58 220.242 493.046 220.085 493.359 219.773C493.671 219.46 493.827 219.005 493.827 218.406C493.827 217.765 493.669 217.286 493.351 216.968C493.033 216.645 492.564 216.484 491.945 216.484C491.351 216.484 490.893 216.65 490.57 216.984C490.252 217.312 490.093 217.794 490.093 218.429C490.093 219.012 490.255 219.46 490.577 219.773C490.9 220.085 491.361 220.242 491.96 220.242ZM501.085 215.554C502.106 215.554 502.864 215.783 503.359 216.242C503.854 216.7 504.101 217.432 504.101 218.437V224.257H503.156L502.906 222.992H502.843C502.604 223.304 502.354 223.567 502.093 223.781C501.833 223.989 501.531 224.148 501.187 224.257C500.848 224.361 500.432 224.414 499.937 224.414C499.416 224.414 498.952 224.322 498.546 224.14C498.145 223.958 497.827 223.682 497.593 223.312C497.364 222.942 497.249 222.473 497.249 221.906C497.249 221.052 497.588 220.395 498.265 219.937C498.942 219.479 499.973 219.229 501.359 219.187L502.835 219.124V218.601C502.835 217.861 502.676 217.343 502.359 217.046C502.041 216.749 501.593 216.601 501.015 216.601C500.567 216.601 500.14 216.666 499.734 216.796C499.327 216.927 498.942 217.08 498.577 217.257L498.179 216.273C498.564 216.075 499.007 215.906 499.507 215.765C500.007 215.624 500.533 215.554 501.085 215.554ZM502.82 220.039L501.515 220.093C500.447 220.135 499.695 220.309 499.257 220.617C498.82 220.924 498.601 221.359 498.601 221.921C498.601 222.411 498.749 222.773 499.046 223.007C499.343 223.242 499.736 223.359 500.226 223.359C500.986 223.359 501.609 223.148 502.093 222.726C502.577 222.304 502.82 221.671 502.82 220.828V220.039ZM505.421 215.695H506.812L508.702 220.664C508.812 220.955 508.913 221.236 509.007 221.507C509.101 221.773 509.184 222.028 509.257 222.273C509.33 222.518 509.387 222.755 509.429 222.984H509.484C509.557 222.723 509.661 222.382 509.796 221.96C509.932 221.533 510.077 221.098 510.234 220.656L512.023 215.695H513.421L509.695 225.515C509.497 226.041 509.265 226.499 508.999 226.89C508.739 227.281 508.421 227.58 508.046 227.789C507.671 228.002 507.218 228.109 506.687 228.109C506.442 228.109 506.226 228.093 506.038 228.062C505.851 228.036 505.689 228.005 505.554 227.968V226.929C505.669 226.955 505.807 226.979 505.968 226.999C506.135 227.02 506.307 227.031 506.484 227.031C506.807 227.031 507.085 226.968 507.32 226.843C507.559 226.723 507.765 226.546 507.937 226.312C508.109 226.078 508.257 225.799 508.382 225.476L508.851 224.273L505.421 215.695ZM563.357 224.414C562.586 224.414 561.906 224.255 561.318 223.937C560.729 223.619 560.271 223.135 559.943 222.484C559.615 221.833 559.451 221.012 559.451 220.023C559.451 218.986 559.622 218.14 559.966 217.484C560.315 216.822 560.794 216.333 561.404 216.015C562.013 215.697 562.706 215.539 563.482 215.539C563.909 215.539 564.32 215.583 564.716 215.671C565.117 215.755 565.445 215.861 565.701 215.992L565.31 217.078C565.049 216.973 564.747 216.88 564.404 216.796C564.065 216.713 563.747 216.671 563.451 216.671C562.857 216.671 562.362 216.799 561.966 217.054C561.576 217.309 561.281 217.684 561.083 218.179C560.891 218.674 560.794 219.283 560.794 220.007C560.794 220.7 560.888 221.291 561.076 221.781C561.268 222.27 561.552 222.645 561.927 222.906C562.307 223.161 562.781 223.289 563.349 223.289C563.802 223.289 564.211 223.242 564.576 223.148C564.94 223.049 565.271 222.934 565.568 222.804V223.96C565.281 224.106 564.961 224.218 564.607 224.296C564.258 224.374 563.841 224.414 563.357 224.414ZM568.896 212.101V215.734C568.896 215.942 568.891 216.153 568.88 216.367C568.87 216.575 568.852 216.768 568.826 216.945H568.911C569.089 216.643 569.313 216.39 569.583 216.187C569.859 215.979 570.172 215.822 570.521 215.718C570.87 215.609 571.24 215.554 571.63 215.554C572.318 215.554 572.891 215.664 573.349 215.882C573.813 216.101 574.159 216.44 574.388 216.898C574.622 217.356 574.74 217.95 574.74 218.679V224.257H573.458V218.765C573.458 218.052 573.294 217.518 572.966 217.164C572.643 216.809 572.146 216.632 571.474 216.632C570.839 216.632 570.331 216.755 569.951 216.999C569.576 217.239 569.305 217.593 569.138 218.062C568.977 218.531 568.896 219.104 568.896 219.781V224.257H567.599V212.101H568.896ZM578.708 215.695V224.257H577.411V215.695H578.708ZM578.076 212.492C578.289 212.492 578.471 212.562 578.622 212.703C578.779 212.838 578.857 213.052 578.857 213.343C578.857 213.63 578.779 213.843 578.622 213.984C578.471 214.124 578.289 214.195 578.076 214.195C577.852 214.195 577.664 214.124 577.513 213.984C577.367 213.843 577.294 213.63 577.294 213.343C577.294 213.052 577.367 212.838 577.513 212.703C577.664 212.562 577.852 212.492 578.076 212.492ZM589.638 215.539C590.706 215.539 591.557 215.906 592.193 216.64C592.828 217.374 593.146 218.479 593.146 219.953C593.146 220.927 593 221.744 592.708 222.406C592.417 223.067 592.005 223.567 591.474 223.906C590.948 224.244 590.326 224.414 589.607 224.414C589.154 224.414 588.755 224.354 588.411 224.234C588.068 224.114 587.773 223.953 587.529 223.749C587.284 223.546 587.081 223.325 586.919 223.085H586.826C586.841 223.289 586.859 223.533 586.88 223.82C586.906 224.106 586.919 224.356 586.919 224.57V228.085H585.615V215.695H586.685L586.857 216.96H586.919C587.086 216.7 587.289 216.463 587.529 216.249C587.768 216.031 588.06 215.859 588.404 215.734C588.753 215.604 589.164 215.539 589.638 215.539ZM589.411 216.632C588.818 216.632 588.339 216.747 587.974 216.976C587.615 217.205 587.352 217.549 587.185 218.007C587.018 218.46 586.93 219.031 586.919 219.718V219.968C586.919 220.692 586.997 221.304 587.154 221.804C587.315 222.304 587.578 222.684 587.943 222.945C588.313 223.205 588.807 223.335 589.427 223.335C589.958 223.335 590.401 223.192 590.755 222.906C591.109 222.619 591.372 222.221 591.544 221.71C591.721 221.195 591.81 220.604 591.81 219.937C591.81 218.927 591.612 218.124 591.216 217.531C590.826 216.932 590.224 216.632 589.411 216.632ZM596.708 212.101V215.734C596.708 215.942 596.703 216.153 596.693 216.367C596.682 216.575 596.664 216.768 596.638 216.945H596.724C596.901 216.643 597.125 216.39 597.396 216.187C597.672 215.979 597.984 215.822 598.333 215.718C598.682 215.609 599.052 215.554 599.443 215.554C600.13 215.554 600.703 215.664 601.161 215.882C601.625 216.101 601.971 216.44 602.201 216.898C602.435 217.356 602.552 217.95 602.552 218.679V224.257H601.271V218.765C601.271 218.052 601.107 217.518 600.779 217.164C600.456 216.809 599.958 216.632 599.286 216.632C598.651 216.632 598.143 216.755 597.763 216.999C597.388 217.239 597.117 217.593 596.951 218.062C596.789 218.531 596.708 219.104 596.708 219.781V224.257H595.411V212.101H596.708ZM606.521 224.257H605.224V215.695H606.521V224.257ZM608.138 211.999V212.156C608.034 212.307 607.891 212.489 607.708 212.703C607.531 212.911 607.333 213.132 607.115 213.367C606.896 213.596 606.674 213.815 606.451 214.023C606.232 214.231 606.029 214.411 605.841 214.562H604.974V214.374C605.141 214.177 605.323 213.94 605.521 213.664C605.719 213.382 605.911 213.096 606.099 212.804C606.286 212.507 606.443 212.239 606.568 211.999H608.138Z" fill="#545454"/>
<path d="M525.013 224.257H522.297V216.822C522.297 216.617 522.3 216.365 522.306 216.066C522.312 215.761 522.321 215.451 522.332 215.134C522.344 214.812 522.356 214.522 522.368 214.264C522.303 214.34 522.171 214.472 521.972 214.66C521.779 214.841 521.597 215.005 521.427 215.152L519.951 216.338L518.641 214.704L522.781 211.408H525.013V224.257ZM537.08 214.282C537.08 214.873 536.957 215.386 536.711 215.82C536.465 216.253 536.131 216.608 535.709 216.883C535.293 217.159 534.825 217.361 534.303 217.49V217.542C535.334 217.671 536.117 217.988 536.65 218.492C537.189 218.996 537.458 219.669 537.458 220.513C537.458 221.263 537.274 221.934 536.905 222.526C536.541 223.118 535.979 223.583 535.217 223.923C534.455 224.263 533.474 224.433 532.273 224.433C531.564 224.433 530.902 224.374 530.286 224.257C529.677 224.146 529.103 223.973 528.564 223.739V221.427C529.115 221.708 529.692 221.922 530.295 222.069C530.899 222.209 531.461 222.28 531.983 222.28C532.955 222.28 533.635 222.113 534.022 221.779C534.414 221.439 534.611 220.964 534.611 220.355C534.611 219.998 534.52 219.696 534.338 219.45C534.157 219.204 533.84 219.016 533.389 218.887C532.944 218.758 532.32 218.694 531.517 218.694H530.541V216.611H531.535C532.326 216.611 532.926 216.538 533.336 216.391C533.752 216.239 534.034 216.034 534.18 215.776C534.332 215.512 534.409 215.213 534.409 214.879C534.409 214.422 534.268 214.065 533.987 213.807C533.705 213.549 533.237 213.42 532.58 213.42C532.17 213.42 531.795 213.473 531.455 213.579C531.121 213.678 530.82 213.801 530.55 213.948C530.281 214.088 530.043 214.226 529.838 214.361L528.581 212.489C529.085 212.125 529.674 211.824 530.348 211.583C531.028 211.343 531.836 211.223 532.774 211.223C534.098 211.223 535.147 211.49 535.92 212.023C536.694 212.556 537.08 213.309 537.08 214.282ZM541.765 211.223C542.773 211.223 543.537 211.575 544.059 212.278C544.58 212.981 544.841 213.968 544.841 215.24C544.841 216.511 544.595 217.504 544.103 218.219C543.611 218.934 542.831 219.291 541.765 219.291C540.775 219.291 540.022 218.934 539.506 218.219C538.991 217.504 538.733 216.511 538.733 215.24C538.733 213.968 538.973 212.981 539.453 212.278C539.94 211.575 540.71 211.223 541.765 211.223ZM541.783 213.06C541.495 213.06 541.285 213.242 541.15 213.605C541.015 213.968 540.948 214.519 540.948 215.257C540.948 215.996 541.015 216.549 541.15 216.918C541.285 217.288 541.495 217.472 541.783 217.472C542.07 217.472 542.281 217.29 542.415 216.927C542.556 216.558 542.626 216.001 542.626 215.257C542.626 214.519 542.556 213.968 542.415 213.605C542.281 213.242 542.07 213.06 541.783 213.06ZM550.888 211.408L543.76 224.257H541.651L548.779 211.408H550.888ZM550.765 216.356C551.773 216.356 552.537 216.707 553.059 217.411C553.58 218.114 553.841 219.101 553.841 220.373C553.841 221.638 553.595 222.628 553.103 223.343C552.611 224.058 551.831 224.415 550.765 224.415C549.775 224.415 549.022 224.058 548.506 223.343C547.991 222.628 547.733 221.638 547.733 220.373C547.733 219.101 547.973 218.114 548.453 217.411C548.94 216.707 549.71 216.356 550.765 216.356ZM550.783 218.193C550.495 218.193 550.285 218.374 550.15 218.738C550.015 219.101 549.948 219.652 549.948 220.39C549.948 221.128 550.015 221.682 550.15 222.051C550.285 222.42 550.495 222.605 550.783 222.605C551.07 222.605 551.281 222.423 551.415 222.06C551.556 221.691 551.626 221.134 551.626 220.39C551.626 219.652 551.556 219.101 551.415 218.738C551.281 218.374 551.07 218.193 550.783 218.193Z" fill="#E97730"/>
</g>
<defs>
<filter id="filter0_d_64_8" x="226.236" y="0.989746" width="278" height="131" filterUnits="userSpaceOnUse" color-interpolation-filters="sRGB">
<feFlood flood-opacity="0" result="BackgroundImageFix"/>
<feColorMatrix in="SourceAlpha" type="matrix" values="0 0 0 0 0 0 0 0 0 0 0 0 0 0 0 0 0 0 127 0" result="hardAlpha"/>
<feMorphology radius="2" operator="dilate" in="SourceAlpha" result="effect1_dropShadow_64_8"/>
<feOffset dy="25"/>
<feGaussianBlur stdDeviation="17.5"/>
<feComposite in2="hardAlpha" operator="out"/>
<feColorMatrix type="matrix" values="0 0 0 0 0.229771 0 0 0 0 0.234247 0 0 0 0 0.341667 0 0 0 0.06 0"/>
<feBlend mode="normal" in2="BackgroundImageFix" result="effect1_dropShadow_64_8"/>
<feBlend mode="normal" in="SourceGraphic" in2="effect1_dropShadow_64_8" result="shape"/>
</filter>
<filter id="filter1_d_64_8" x="302.921" y="88.9897" width="278" height="131" filterUnits="userSpaceOnUse" color-interpolation-filters="sRGB">
<feFlood flood-opacity="0" result="BackgroundImageFix"/>
<feColorMatrix in="SourceAlpha" type="matrix" values="0 0 0 0 0 0 0 0 0 0 0 0 0 0 0 0 0 0 127 0" result="hardAlpha"/>
<feMorphology radius="2" operator="dilate" in="SourceAlpha" result="effect1_dropShadow_64_8"/>
<feOffset dy="25"/>
<feGaussianBlur stdDeviation="17.5"/>
<feComposite in2="hardAlpha" operator="out"/>
<feColorMatrix type="matrix" values="0 0 0 0 0.229771 0 0 0 0 0.234247 0 0 0 0 0.341667 0 0 0 0.06 0"/>
<feBlend mode="normal" in2="BackgroundImageFix" result="effect1_dropShadow_64_8"/>
<feBlend mode="normal" in="SourceGraphic" in2="effect1_dropShadow_64_8" result="shape"/>
</filter>
<filter id="filter2_d_64_8" x="382.186" y="176.99" width="278" height="131" filterUnits="userSpaceOnUse" color-interpolation-filters="sRGB">
<feFlood flood-opacity="0" result="BackgroundImageFix"/>
<feColorMatrix in="SourceAlpha" type="matrix" values="0 0 0 0 0 0 0 0 0 0 0 0 0 0 0 0 0 0 127 0" result="hardAlpha"/>
<feMorphology radius="2" operator="dilate" in="SourceAlpha" result="effect1_dropShadow_64_8"/>
<feOffset dy="25"/>
<feGaussianBlur stdDeviation="17.5"/>
<feComposite in2="hardAlpha" operator="out"/>
<feColorMatrix type="matrix" values="0 0 0 0 0.229771 0 0 0 0 0.234247 0 0 0 0 0.341667 0 0 0 0.06 0"/>
<feBlend mode="normal" in2="BackgroundImageFix" result="effect1_dropShadow_64_8"/>
<feBlend mode="normal" in="SourceGraphic" in2="effect1_dropShadow_64_8" result="shape"/>
</filter>
</defs>
</svg>
