<svg width="38" height="39" viewBox="0 0 38 39" fill="none" xmlns="http://www.w3.org/2000/svg">
<path d="M17.7405 11.3382C17.9484 11.6251 18.3453 11.6872 18.6241 11.4768L21.0577 9.67414C21.3413 9.46375 21.4027 9.06209 21.1948 8.77997L15.1604 0.445504C14.9525 0.158603 14.5556 0.0964412 14.2768 0.306835L11.8432 2.10953C11.5597 2.31992 11.4982 2.72158 11.7061 3.0037L17.7405 11.3382Z" fill="#E97730"/>
<path d="M37.3793 32.9658L31.345 24.6313C31.137 24.3444 30.7401 24.2822 30.4613 24.4926L28.0277 26.2953C27.7442 26.5057 27.6828 26.9074 27.8907 27.1895L33.925 35.524C34.133 35.8109 34.5299 35.873 34.8087 35.6626L37.2423 33.8599C37.5258 33.6495 37.5872 33.2479 37.3793 32.9658Z" fill="#E97730"/>
<path d="M15.4534 16.4642C14.4563 14.6328 16.0866 13.6191 16.0866 13.6191L9.57025 4.43823C9.57025 4.43823 3.31853 9.13862 12.7268 24.0336C16.3748 29.805 20.1079 33.0948 23.3212 34.9692C22.8156 35.7343 22.1824 36.6476 21.8232 36.9919C21.6106 37.1975 21.3082 37.1736 21.1475 37.1401C20.6561 37.0445 20.1883 36.6381 19.952 36.1121C19.6023 35.3231 18.8888 34.8258 18.1658 34.8593C17.4144 34.8927 16.8001 35.4331 16.4977 36.3033C16.1858 36.9776 15.9354 37.1258 15.874 37.1258C15.8125 37.1258 15.5763 36.9728 15.3164 36.3225L15.2927 36.2746C14.8296 35.4092 14.2295 34.9597 13.5916 35.0123C13.1568 35.0505 12.5567 35.3374 12.1503 36.5089C11.9991 36.8006 11.7061 37.2501 11.3423 37.2262C11.0257 37.2071 10.6476 36.8389 10.4964 36.4038L10.4681 36.3368C9.9152 35.2848 9.28672 34.7732 8.59681 34.821C7.888 34.8688 7.22644 35.5574 6.82951 36.6524C6.76808 36.8245 6.62159 37.1162 6.34752 37.1162C6.34279 37.1162 6.34279 37.1162 6.33807 37.1162C6.06399 37.1114 5.68123 36.8245 5.49694 36.2173L5.46859 36.1503C5.00077 35.1844 4.41955 34.9597 4.01316 34.9406C3.39413 34.9167 2.76565 35.3518 2.32619 36.0929C1.72606 37.0015 0.511628 37.2262 0.497452 37.231L0.577784 37.7044L0.658116 38.1778C0.724272 38.1682 2.28838 37.8861 3.12478 36.6094C3.38468 36.1742 3.72491 35.8825 3.97063 35.9017C4.17383 35.9112 4.40064 36.1408 4.59911 36.5472C4.88736 37.4462 5.57255 38.063 6.30971 38.0821C6.91929 38.0869 7.46271 37.69 7.71316 36.9919C7.95888 36.3129 8.35582 35.806 8.65352 35.7869C8.92759 35.7678 9.27255 36.136 9.60805 36.7672C9.84905 37.4223 10.4634 38.1347 11.2714 38.1873C11.2998 38.1873 11.3281 38.1921 11.3612 38.1921C11.7723 38.1921 12.4528 38.0056 12.9962 36.925L13.0198 36.8628C13.2372 36.2268 13.4923 35.9877 13.6577 35.9734C13.8326 35.9543 14.1492 36.1838 14.4374 36.7193C14.8013 37.6135 15.2738 38.0773 15.8361 38.0917C16.4174 38.1108 16.9183 37.6422 17.3625 36.6715C17.5467 36.1455 17.8492 35.8347 18.1941 35.8204C18.5344 35.806 18.884 36.0738 19.0778 36.5089C19.4416 37.3218 20.1552 37.9291 20.949 38.0869C21.5255 38.2017 22.0737 38.0582 22.4565 37.6948C22.9054 37.2645 23.6284 36.2077 24.134 35.4426C28.7791 37.8765 32.1341 37.3505 32.1341 37.3505C32.1341 37.3505 28.0419 31.3447 25.8399 28.2749C22.7825 29.2504 16.2662 18.6303 15.4534 16.4642Z" fill="#E97730"/>
</svg>
