<svg width="73" height="73" viewBox="0 0 73 73" fill="none" xmlns="http://www.w3.org/2000/svg">
<circle cx="36.5" cy="36.0649" r="36" fill="#F7F7F7"/>
<path d="M22 40.0649C21.724 40.0649 21.5 39.8409 21.5 39.5649V23.5649C21.5 22.7379 22.173 22.0649 23 22.0649H50C50.827 22.0649 51.5 22.7379 51.5 23.5649V25.0649C51.5 25.3409 51.276 25.5649 51 25.5649C50.724 25.5649 50.5 25.3409 50.5 25.0649V23.5649C50.5 23.2899 50.275 23.0649 50 23.0649H23C22.725 23.0649 22.5 23.2899 22.5 23.5649V39.5649C22.5 39.8409 22.276 40.0649 22 40.0649ZM36.5 51.0649H31C30.724 51.0649 30.5 50.8409 30.5 50.5649C30.5 50.2889 30.724 50.0649 31 50.0649H32C32.827 50.0649 33.5 49.3919 33.5 48.5649V46.0649C33.5 45.7889 33.724 45.5649 34 45.5649C34.276 45.5649 34.5 45.7889 34.5 46.0649V48.5649C34.5 49.1279 34.313 49.6469 33.999 50.0649H36.5C36.776 50.0649 37 50.2889 37 50.5649C37 50.8409 36.776 51.0649 36.5 51.0649Z" fill="#E97730" stroke="#E97730"/>
<path d="M36 46.0649H23C22.173 46.0649 21.5 45.3919 21.5 44.5649V41.5649C21.5 41.2889 21.724 41.0649 22 41.0649H36C36.276 41.0649 36.5 41.2889 36.5 41.5649C36.5 41.8409 36.276 42.0649 36 42.0649H22.5V44.5649C22.5 44.8399 22.725 45.0649 23 45.0649H36C36.276 45.0649 36.5 45.2889 36.5 45.5649C36.5 45.8409 36.276 46.0649 36 46.0649ZM42 29.0649H47C47.276 29.0649 47.5 28.8409 47.5 28.5649C47.5 28.2889 47.276 28.0649 47 28.0649H42C41.724 28.0649 41.5 28.2889 41.5 28.5649C41.5 28.8409 41.724 29.0649 42 29.0649ZM44 49.0649H45C45.276 49.0649 45.5 48.8409 45.5 48.5649C45.5 48.2889 45.276 48.0649 45 48.0649H44C43.724 48.0649 43.5 48.2889 43.5 48.5649C43.5 48.8409 43.724 49.0649 44 49.0649Z" fill="#E97730" stroke="#E97730"/>
<path d="M49 51.0649H40C38.621 51.0649 37.5 49.9439 37.5 48.5649V28.5649C37.5 27.1859 38.621 26.0649 40 26.0649H49C50.379 26.0649 51.5 27.1859 51.5 28.5649V48.5649C51.5 49.9439 50.379 51.0649 49 51.0649ZM40 27.0649C39.173 27.0649 38.5 27.7379 38.5 28.5649V48.5649C38.5 49.3919 39.173 50.0649 40 50.0649H49C49.827 50.0649 50.5 49.3919 50.5 48.5649V28.5649C50.5 27.7379 49.827 27.0649 49 27.0649H40Z" fill="#E97730" stroke="#E97730"/>
</svg>
