<svg width="78" height="77" viewBox="0 0 78 77" fill="none" xmlns="http://www.w3.org/2000/svg">
<path opacity="0.6" fill-rule="evenodd" clip-rule="evenodd" d="M12.3617 38.4463L4.4662 38.5947C3.87968 38.6096 3.38339 38.3127 3.11268 37.808C2.84198 37.3033 2.8871 36.7244 3.21796 36.2494L17.099 17.1604C17.46 16.6557 18.0615 16.433 18.6631 16.5814L29.3107 19.09C27.7918 20.4111 26.318 21.7768 24.8892 23.1869C20.5881 27.4322 16.6779 32.0783 13.2941 37.0658L12.3617 38.4463Z" fill="#4285F4"/>
<path opacity="0.6" fill-rule="evenodd" clip-rule="evenodd" d="M9.94044 57.0603C10.4217 56.6002 11.1736 56.615 11.6399 57.0752C12.091 57.5354 12.091 58.2627 11.6399 58.7229L7.14317 63.1611C6.66192 63.6213 5.90997 63.6064 5.44376 63.1314C4.99258 62.6713 4.99258 61.9439 5.44376 61.4838L9.94044 57.0603Z" fill="#4285F4"/>
<path opacity="0.6" fill-rule="evenodd" clip-rule="evenodd" d="M18.8736 65.8775C19.3549 65.4174 20.1068 65.4322 20.573 65.9072C21.0242 66.3674 21.0242 67.0947 20.573 67.5549L16.0764 71.9932C15.5951 72.4533 14.8432 72.4385 14.377 71.9635C13.9258 71.5033 13.9258 70.776 14.377 70.3158L18.8736 65.8775Z" fill="#4285F4"/>
<path opacity="0.6" fill-rule="evenodd" clip-rule="evenodd" d="M14.407 61.4541L5.92501 69.826C5.4588 70.2861 5.4588 71.0432 5.92501 71.5033C6.39122 71.9635 7.15821 71.9635 7.62442 71.5033L16.1065 63.1314C16.5727 62.6713 16.5727 61.9143 16.1065 61.4541C15.6252 60.9939 14.8732 60.9939 14.407 61.4541Z" fill="#4285F4"/>
<path fill-rule="evenodd" clip-rule="evenodd" d="M15.2943 38.3869L39.4772 62.2557C41.2518 61.083 42.9813 59.8361 44.6656 58.5447L19.0541 33.2658C17.7457 34.9283 16.4824 36.6354 15.2943 38.3869Z" fill="#4285F4"/>
<path fill-rule="evenodd" clip-rule="evenodd" d="M75.992 2.34629C61.0582 1.44083 42.1391 9.51583 26.5887 24.8643C24.4832 26.9424 22.468 29.1244 20.5731 31.3955L46.5606 57.0455C48.8615 55.1752 51.0723 53.1861 53.1777 51.108C68.7281 35.7596 76.8943 17.0861 75.992 2.34629ZM59.8852 30.9799C56.3209 34.4979 50.5459 34.4979 46.9817 30.9799C43.4174 27.4619 43.4174 21.7619 46.9817 18.244C50.5459 14.726 56.3209 14.726 59.8852 18.244C63.4494 21.7619 63.4494 27.4619 59.8852 30.9799Z" fill="#4285F4"/>
<path opacity="0.6" fill-rule="evenodd" clip-rule="evenodd" d="M58.0955 20.0104C60.6672 22.5486 60.6672 26.6604 58.0955 29.1986C55.5238 31.7369 51.358 31.7369 48.7863 29.1986C46.2147 26.6604 46.2147 22.5486 48.7863 20.0104C51.343 17.4721 55.5238 17.4721 58.0955 20.0104Z" fill="#4285F4"/>
<path fill-rule="evenodd" clip-rule="evenodd" d="M33.2209 59.4502L28.3332 64.2744C27.7467 64.8533 26.7992 64.8533 26.2127 64.2744L13.2641 51.4939C12.6775 50.915 12.6775 49.9799 13.2641 49.401L18.1517 44.5768L33.2209 59.4502Z" fill="#4285F4"/>
<path opacity="0.6" fill-rule="evenodd" clip-rule="evenodd" d="M39.417 65.1502L40.8156 64.2299C45.8688 60.89 50.576 57.0307 54.8772 52.7854C56.3059 51.3752 57.6895 49.9205 59.0279 48.4213L61.5695 58.9307C61.7199 59.5244 61.4944 60.1182 60.983 60.4744L41.6428 74.1752C41.1615 74.5166 40.5901 74.5463 40.0637 74.2791C39.5373 74.0119 39.2516 73.5072 39.2666 72.9432L39.417 65.1502Z" fill="#4285F4"/>
</svg>
