<svg width="141" height="30" viewBox="0 0 141 30" fill="none" xmlns="http://www.w3.org/2000/svg">
<path d="M29.4921 0.0624199H0.185059V29.6798H29.4921V0.0624199Z" fill="white"/>
<path d="M19.3395 0.0080155C22.6166 0.0080155 25.8921 0.0112153 29.1692 0.00321579C29.4431 0.00321579 29.5207 0.0832109 29.5207 0.359994C29.5128 5.07491 29.5112 9.78982 29.5223 14.5047C29.5238 14.8455 29.3529 14.8935 29.0948 14.9575C27.0288 15.4743 24.966 16.0054 22.9 16.527C22.6008 16.6022 22.3855 16.6742 22.3665 17.0774C22.2081 20.4724 19.7131 22.4834 16.8144 23.037C13.4629 23.677 10.3647 22.0243 8.77362 18.7141C7.56727 16.2054 7.24114 13.5768 8.30976 10.9337C9.29131 8.5083 11.2275 7.23157 13.713 6.7388C16.4139 6.20284 18.6508 6.94039 20.2846 9.25225C20.4683 9.51304 20.6535 9.49544 20.9068 9.42984C23.0203 8.88427 25.1306 8.33071 27.252 7.81874C27.6953 7.71155 27.6668 7.55635 27.5148 7.22358C25.8668 3.5902 23.177 1.17594 19.3395 0.0080155Z" fill="#EA610E"/>
<path d="M56.4942 12.2089C56.4942 14.9959 56.4816 17.7813 56.5053 20.5683C56.5101 21.1331 56.3074 21.3859 55.7771 21.5107C53.8773 21.9587 51.9601 22.2178 50.0065 22.0978C47.464 21.9427 45.6323 20.3684 45.159 17.8373C44.8091 15.9654 44.8059 14.0647 45.1289 12.1897C45.6133 9.37703 47.4719 7.80272 50.3137 7.68753C51.129 7.65393 51.9459 7.67633 52.7533 7.79472C53.138 7.85072 53.263 7.76432 53.252 7.34675C53.2235 6.12122 53.2393 4.8941 53.2425 3.66697C53.244 3.03981 53.3517 2.93422 53.9723 2.93102C54.5786 2.92782 55.1866 2.92622 55.7929 2.93102C56.3866 2.93582 56.4927 3.03981 56.4927 3.63818C56.4958 6.4956 56.4942 9.35303 56.4942 12.2089ZM53.2409 14.9431C53.2409 13.612 53.2314 12.2808 53.2472 10.9497C53.2504 10.6425 53.1744 10.5354 52.8546 10.5002C52.1628 10.4218 51.4725 10.385 50.7791 10.3962C49.4002 10.4202 48.6482 10.9769 48.4028 12.3352C48.0925 14.0487 48.1099 15.791 48.4012 17.5077C48.6023 18.6917 49.3163 19.282 50.5052 19.4132C51.3015 19.5012 52.0963 19.3908 52.891 19.3252C53.1681 19.3028 53.252 19.1668 53.2488 18.882C53.233 17.5717 53.2409 16.2582 53.2409 14.9431Z" fill="#343434"/>
<path d="M65.621 16.1046C64.3719 16.1046 63.1228 16.1174 61.8753 16.0966C61.5428 16.0918 61.4716 16.1926 61.489 16.511C61.5935 18.3301 62.5703 19.274 64.5001 19.3364C65.9487 19.3828 67.3625 19.1172 68.7556 18.7381C69.4474 18.5493 69.5124 18.5957 69.5171 19.3076C69.5187 19.5524 69.4823 19.8052 69.5234 20.042C69.6453 20.7443 69.305 21.1107 68.6986 21.3491C66.6295 22.1587 64.5207 22.5042 62.3439 21.8819C60.0721 21.2323 58.69 19.7252 58.3528 17.3526C58.1185 15.7015 58.1074 14.0248 58.3845 12.3785C58.8927 9.36264 61.2183 7.58675 64.3577 7.73074C67.7662 7.88753 69.905 10.0682 70.0237 13.5208C70.0443 14.1159 70.0395 14.7127 70.038 15.3079C70.0348 16.0134 69.9477 16.103 69.2638 16.103C68.0495 16.1062 66.8353 16.1046 65.621 16.1046ZM64.1249 13.7544C64.888 13.7544 65.6511 13.756 66.4157 13.7528C66.563 13.7528 66.7197 13.796 66.7656 13.5544C66.9413 12.6296 66.2305 11.2505 65.3424 10.8297C63.4521 9.9338 61.3703 11.3769 61.5048 13.4792C61.5238 13.7864 61.698 13.7544 61.888 13.7544C62.6336 13.7544 63.3793 13.7544 64.1249 13.7544Z" fill="#343434"/>
<path d="M116.782 16.1046C115.533 16.1046 114.284 16.1206 113.036 16.095C112.645 16.087 112.583 16.223 112.615 16.575C112.776 18.3925 113.715 19.2788 115.632 19.338C117.098 19.3828 118.528 19.1044 119.939 18.7269C120.559 18.5605 120.632 18.6133 120.638 19.2676C120.64 19.5124 120.607 19.7636 120.645 20.002C120.765 20.7427 120.412 21.1219 119.761 21.3731C117.703 22.1651 115.61 22.4978 113.454 21.8803C111.184 21.2291 109.805 19.7156 109.472 17.343C109.241 15.6919 109.225 14.0152 109.507 12.3689C110.025 9.34984 112.349 7.58195 115.49 7.73234C118.898 7.89553 121.028 10.0762 121.145 13.5336C121.165 14.1639 121.146 14.7959 121.162 15.4263C121.173 15.9126 120.972 16.1206 120.477 16.1126C119.245 16.0918 118.013 16.1046 116.782 16.1046ZM115.257 13.7544C116.003 13.7544 116.75 13.7576 117.496 13.7512C117.651 13.7496 117.838 13.8232 117.885 13.5416C118.107 12.2121 117.037 10.7674 115.704 10.617C113.87 10.4106 112.598 11.5849 112.624 13.4392C112.629 13.7096 112.735 13.7608 112.966 13.7576C113.731 13.7496 114.494 13.7544 115.257 13.7544Z" fill="#343434"/>
<path d="M31.8035 14.9303C31.7766 13.8967 31.7671 12.8632 32.0426 11.8521C32.774 9.16264 34.9682 7.61073 37.8764 7.72912C41.3467 7.87151 43.5029 10.0586 43.5789 13.5704C43.609 14.9335 43.7261 16.3094 43.4317 17.6581C42.6718 21.1395 39.9994 22.4754 36.9345 22.1458C33.803 21.8083 31.927 19.6932 31.8067 16.5062C31.7861 15.983 31.8035 15.4567 31.8035 14.9303ZM40.3398 14.9943C40.3319 14.2951 40.3699 13.596 40.2464 12.9C39.9931 11.4793 39.1366 10.6537 37.8305 10.5929C36.4595 10.529 35.4906 11.2361 35.2025 12.6808C34.9049 14.1815 34.9128 15.7174 35.1978 17.2181C35.4621 18.6085 36.4263 19.3572 37.707 19.3476C38.9894 19.3364 39.8839 18.5669 40.2084 17.1893C40.3778 16.4662 40.343 15.7302 40.3398 14.9943Z" fill="#343434"/>
<path d="M83.3395 14.9607C83.3157 13.9272 83.3031 12.8936 83.5706 11.8825C84.2909 9.15946 86.5485 7.57395 89.4868 7.73394C92.9381 7.92113 95.0436 10.0938 95.1165 13.5944C95.1434 14.9399 95.2605 16.2998 94.9756 17.6293C94.2283 21.1091 91.5861 22.4674 88.5021 22.1507C85.3517 21.8275 83.4614 19.6996 83.3426 16.4854C83.3221 15.9782 83.3395 15.4695 83.3395 14.9607ZM91.8774 14.9831C91.871 14.2839 91.9059 13.5848 91.7808 12.8888C91.5243 11.4697 90.6647 10.649 89.3554 10.593C88.0002 10.5354 87.0424 11.2185 86.7543 12.644C86.4393 14.2103 86.4234 15.8166 86.7844 17.3814C87.0804 18.6677 87.9876 19.3396 89.205 19.3476C90.4494 19.3556 91.3185 18.6629 91.6905 17.3782C91.9201 16.5926 91.8742 15.7863 91.8774 14.9831Z" fill="#343434"/>
<path d="M97.6891 7.89713C97.9836 7.89713 98.2828 7.92753 98.5725 7.89073C99.1551 7.81553 99.3673 8.12272 99.4828 8.64108C100.235 12.0201 101.004 15.3943 101.769 18.7701C101.796 18.8885 101.826 19.0085 101.864 19.1236C101.929 19.3156 102.032 19.4788 102.263 19.4724C102.494 19.466 102.581 19.2884 102.649 19.1028C102.684 19.0053 102.705 18.9013 102.727 18.7989C103.487 15.4583 104.248 12.1177 105.006 8.77708C105.196 7.94193 105.242 7.89873 106.066 7.89873C106.654 7.89873 107.245 7.89553 107.834 7.89873C108.435 7.90193 108.57 8.07632 108.405 8.67948C107.883 10.601 107.353 12.5208 106.825 14.4423C106.325 16.2614 105.834 18.0837 105.321 19.8996C104.881 21.4515 103.871 22.1971 102.255 22.1987C100.665 22.2003 99.6348 21.4691 99.2089 19.9428C98.1593 16.1734 97.1366 12.3961 96.1076 8.62029C95.9619 8.08432 96.0965 7.90993 96.6458 7.90193C96.9957 7.89233 97.3424 7.89713 97.6891 7.89713Z" fill="#343434"/>
<path d="M135.517 7.72915C137.233 7.75475 138.591 7.97554 139.897 8.5083C140.325 8.68269 140.542 8.93548 140.507 9.41545C140.48 9.78183 140.504 10.1514 140.5 10.5194C140.494 11.1513 140.38 11.2409 139.791 11.0665C138.572 10.7034 137.337 10.441 136.061 10.4314C135.699 10.4282 135.333 10.4714 134.975 10.5322C134.64 10.5898 134.342 10.7402 134.258 11.1241C134.173 11.5193 134.269 11.8665 134.611 12.0953C135.205 12.4905 135.809 12.8648 136.413 13.244C137.266 13.78 138.141 14.2824 138.971 14.8535C140.543 15.9351 141.11 17.391 140.709 19.1653C140.358 20.7172 139.066 21.8307 137.275 22.0883C135.401 22.3571 133.58 22.1139 131.806 21.4563C131.302 21.2691 131.033 20.9683 131.1 20.3956C131.134 20.1012 131.104 19.8004 131.106 19.5012C131.109 18.7157 131.184 18.6549 131.912 18.8757C133.248 19.2804 134.606 19.5348 136.009 19.4692C136.25 19.458 136.495 19.4292 136.726 19.3668C137.535 19.1461 137.777 18.2597 137.207 17.6309C136.959 17.3558 136.644 17.167 136.334 16.9734C135.198 16.2646 134.051 15.5767 132.93 14.8471C131.348 13.8184 130.702 12.3305 131.041 10.5306C131.299 9.16106 132.181 8.37711 133.465 7.99954C134.239 7.77395 135.035 7.74035 135.517 7.72915Z" fill="#343434"/>
<path d="M75.4539 10.7481C75.4539 12.7992 75.4507 14.8487 75.4539 16.8998C75.457 18.7956 75.8845 19.2292 77.7447 19.2324C79.0793 19.234 80.4154 19.2452 81.75 19.226C82.2424 19.2196 82.4498 19.41 82.4228 19.9092C82.3991 20.346 82.4007 20.7859 82.4228 21.2227C82.4403 21.5859 82.2962 21.8003 81.9479 21.8467C79.6951 22.149 77.436 22.4498 75.1816 21.8963C73.4164 21.4643 72.3509 20.2404 72.1119 18.4229C72.0533 17.9717 72.0153 17.5157 72.0137 17.0613C72.0058 12.8024 72.0089 8.54347 72.0089 4.28613C72.0089 3.55337 72.1356 3.42218 72.848 3.41898C73.4718 3.41578 74.0971 3.41258 74.7209 3.42058C75.3066 3.42698 75.4491 3.57577 75.4507 4.17574C75.4554 6.3676 75.4539 8.55787 75.4539 10.7481Z" fill="#343434"/>
<path d="M122.934 15.2071C122.934 13.2264 122.943 11.2457 122.928 9.26504C122.924 8.83146 123.057 8.56268 123.485 8.45549C125.478 7.95792 127.49 7.64274 129.555 7.76273C130.064 7.79153 130.272 7.99472 130.238 8.50988C130.21 8.96426 130.216 9.42183 130.237 9.8762C130.261 10.3706 130.069 10.577 129.566 10.5466C128.611 10.4906 127.664 10.5626 126.714 10.697C126.268 10.7593 126.211 10.9481 126.213 11.3401C126.227 14.5655 126.22 17.7909 126.22 21.0163C126.22 21.9219 126.143 21.9987 125.242 21.9987C124.739 21.9987 124.237 22.0003 123.733 21.9987C123.083 21.9971 122.935 21.8547 122.935 21.2035C122.932 19.2036 122.934 17.2054 122.934 15.2071Z" fill="#343434"/>
<path d="M0.166052 11.4345C0.166052 9.69222 0.166052 8.06832 0.166052 6.44442C0.166052 4.44774 0.169218 2.45106 0.162885 0.452783C0.162885 0.185599 0.145471 -0.00158973 0.523841 1.01772e-05C4.19831 0.0144093 7.87278 0.00800969 11.6755 0.00800969C5.7672 1.7375 1.73178 5.24449 0.166052 11.4345Z" fill="#EA610E"/>
<path d="M0.166068 17.7205C1.25843 22.6946 4.03051 27.5439 10.3567 29.6686C9.8343 29.6686 9.44802 29.6686 9.06173 29.6686C6.25324 29.6686 3.44317 29.6702 0.634678 29.667C0.409872 29.667 0.107492 29.7582 0.164485 29.3374C0.173984 29.2686 0.166068 29.1966 0.166068 29.1278C0.166068 25.3249 0.166068 21.5219 0.166068 17.7205Z" fill="#EA610E"/>
<path d="M29.5143 19.5188C29.5143 20.5284 29.5143 21.5395 29.5143 22.5491C29.5143 24.7745 29.5112 27.0016 29.5175 29.227C29.5191 29.499 29.527 29.6782 29.1518 29.6766C25.8921 29.6622 22.6308 29.6686 19.2144 29.6686C24.434 27.9983 28.1781 25.0001 29.5143 19.5188Z" fill="#EA610E"/>
<path d="M64.8516 26.2832C65.6764 25.5729 66.3619 25.5905 67.049 26.3552C67.2675 26.1232 67.5034 25.9168 67.8311 25.832C68.6844 25.6129 69.4126 26.0592 69.4665 26.936C69.5203 27.8255 69.4791 28.7215 69.4823 29.6142C69.4839 30.0638 69.1467 29.8382 68.9535 29.8814C68.534 29.9726 68.3836 29.811 68.4121 29.3598C68.4533 28.6799 68.4248 27.9951 68.4216 27.312C68.42 26.9408 68.3029 26.648 67.8786 26.6256C67.459 26.6048 67.2073 26.8432 67.1883 27.2432C67.1519 27.9935 67.1313 28.7487 67.1677 29.499C67.1915 29.9854 66.897 29.8766 66.6374 29.883C66.3651 29.8894 66.0944 29.955 66.1229 29.4878C66.1656 28.7903 66.1403 28.0879 66.1308 27.3872C66.126 26.9968 66.0564 26.6368 65.5529 26.6224C65.0954 26.6096 64.8801 26.8432 64.869 27.4048C64.8564 28.0527 64.8358 28.7023 64.8754 29.347C64.9023 29.7854 64.7772 29.9054 64.3403 29.9006C63.9302 29.8958 63.821 29.7838 63.8337 29.3758C63.8637 28.3791 63.8337 27.3792 63.8527 26.3824C63.8558 26.2064 63.6785 25.856 64.0885 25.8928C64.3767 25.9216 64.8485 25.6369 64.8516 26.2832Z" fill="#343434"/>
<path d="M32.5143 24.5505C33.6684 24.4529 33.6716 24.4529 33.9677 25.4753C34.2146 26.3296 34.4568 27.1872 34.7007 28.0415C34.7371 28.1711 34.7355 28.3231 34.9001 28.4143C35.212 27.3327 35.5508 26.2704 35.8152 25.1905C35.9434 24.6609 36.154 24.4001 36.7112 24.5137C36.8426 24.5409 36.9835 24.5169 37.1767 24.5169C36.6875 25.968 36.2157 27.3695 35.7424 28.7727C35.6869 28.9374 35.592 29.099 35.5745 29.267C35.5112 29.8926 35.1075 29.9246 34.6199 29.8926C34.403 29.8782 34.2795 29.835 34.2051 29.6078C33.6526 27.9375 33.0906 26.2688 32.5143 24.5505Z" fill="#343434"/>
<path d="M61.5761 29.8654C61.1692 29.7134 60.5407 30.2734 60.3998 29.4014C60.0246 29.763 59.6272 30.0238 59.1032 29.9934C58.4731 29.9566 58.033 29.5774 57.9538 28.987C57.8684 28.3487 58.1676 27.8159 58.7692 27.6383C59.1649 27.5215 59.5829 27.4831 59.9898 27.4047C60.2067 27.3631 60.4014 27.2815 60.3871 27.008C60.3729 26.7392 60.1671 26.6576 59.9565 26.6352C59.6241 26.6 59.3153 26.6112 59.1048 26.9744C58.88 27.3647 58.4541 27.176 58.1802 27.1056C57.9554 27.0496 58.1549 26.72 58.2356 26.5296C58.3734 26.2064 58.6314 26.0016 58.9607 25.8992C59.4689 25.7408 59.9803 25.7328 60.4964 25.8832C61.1771 26.0816 61.4051 26.3664 61.4146 27.0864C61.4241 27.7343 61.4146 28.3839 61.4178 29.0318C61.4193 29.3102 61.4162 29.5934 61.5761 29.8654ZM60.3428 27.9439C60.0072 28.0239 59.6716 28.0943 59.3407 28.1871C59.0351 28.2735 58.9306 28.5071 59.0003 28.7999C59.0684 29.0862 59.2979 29.1614 59.5655 29.147C60.1892 29.1134 60.4584 28.7039 60.3428 27.9439Z" fill="#343434"/>
<path d="M44.6333 28.2015C44.2692 28.2015 43.9034 28.2159 43.5409 28.1967C43.2433 28.1807 43.2306 28.3151 43.305 28.5439C43.4887 29.1183 44.3103 29.3934 44.7583 28.9599C45.1019 28.6271 45.4613 28.7647 45.819 28.7311C46.0169 28.7119 46.0011 28.8527 45.9362 28.9711C45.8523 29.1231 45.7652 29.2798 45.6481 29.403C45.0528 30.0286 44.3198 30.1134 43.5393 29.883C42.8047 29.6654 42.3915 29.1582 42.2712 28.3823C41.9942 26.6 43.2195 25.3873 44.8185 25.8784C45.6291 26.128 46.2322 27.1712 46.0739 28.0095C46.0328 28.2239 45.9125 28.1967 45.7779 28.1983C45.3963 28.2031 45.0148 28.2015 44.6333 28.2015ZM44.1488 27.464C44.3372 27.464 44.5272 27.4496 44.7156 27.4672C45.0544 27.4975 45.0401 27.336 44.9341 27.0992C44.6903 26.56 43.8924 26.4416 43.5029 26.8944C43.3794 27.0384 43.2401 27.2256 43.3161 27.4016C43.3747 27.5391 43.5916 27.4496 43.7372 27.4608C43.8734 27.472 44.0111 27.464 44.1488 27.464Z" fill="#343434"/>
<path d="M53.2124 26.3504C53.5939 25.9264 53.9738 25.76 54.4377 25.7776C55.2704 25.8096 55.7296 26.2464 55.7454 27.0863C55.7612 27.9103 55.7311 28.7342 55.7565 29.5582C55.7707 30.0366 55.4446 29.8782 55.2293 29.8766C55.0171 29.875 54.6831 30.0462 54.7005 29.563C54.7274 28.8798 54.7116 28.1967 54.7053 27.5119C54.7005 26.8784 54.5248 26.6416 54.0657 26.624C53.5781 26.6064 53.2614 26.9119 53.2377 27.4927C53.2108 28.1407 53.1854 28.7934 53.2377 29.4366C53.2804 29.9694 52.9701 29.8638 52.6614 29.8926C52.2815 29.9278 52.1548 29.8222 52.1691 29.4126C52.2023 28.3967 52.1722 27.3791 52.1881 26.3632C52.1912 26.1968 52.0329 25.8608 52.3939 25.9008C52.6852 25.9328 53.1664 25.5968 53.2124 26.3504Z" fill="#343434"/>
<path d="M49.5252 29.9902C48.5801 29.9854 48.3664 29.7678 48.3648 28.8734C48.3648 28.2271 48.3648 27.5791 48.3648 26.9328C48.3648 26.7792 48.4012 26.5888 48.1479 26.6256C47.8455 26.6704 47.817 26.504 47.8202 26.2576C47.8233 26.0224 47.8297 25.8336 48.1416 25.8848C48.3347 25.9168 48.379 25.8048 48.3679 25.6368C48.3616 25.5328 48.3537 25.4257 48.3695 25.3233C48.3996 25.1281 48.2508 24.8321 48.4677 24.7569C48.7146 24.6721 49.0376 24.6705 49.2846 24.7585C49.5331 24.8481 49.3859 25.1569 49.3938 25.3649C49.4033 25.672 49.3542 25.9664 49.8276 25.8928C50.1252 25.8464 50.0255 26.1104 50.0287 26.2576C50.0318 26.408 50.1173 26.6608 49.8197 26.616C49.4081 26.5552 49.3827 26.776 49.3954 27.0992C49.416 27.6399 49.3986 28.1839 49.4017 28.7247C49.4033 28.8942 49.3748 29.1502 49.6091 29.1278C50.1886 29.075 50.0382 29.483 50.0255 29.7694C50.0017 30.2206 49.6218 29.8382 49.5252 29.9902Z" fill="#343434"/>
<path d="M39.0796 27.8863C39.0796 27.328 39.1018 26.768 39.0717 26.2112C39.048 25.7857 39.3282 25.8672 39.5435 25.8944C39.7635 25.9216 40.134 25.6881 40.1261 26.208C40.1103 27.3248 40.1103 28.4415 40.1261 29.5582C40.134 30.0782 39.7651 29.8494 39.5451 29.875C39.3313 29.899 39.0495 29.987 39.0717 29.5598C39.1018 29.0047 39.0796 28.4447 39.0796 27.8863Z" fill="#343434"/>
<path d="M39.5578 25.456C39.1398 25.5664 39.0892 25.352 39.0622 24.9665C39.0274 24.4577 39.3076 24.5329 39.6227 24.5089C40.0248 24.4769 40.123 24.6097 40.1404 25.0177C40.1625 25.5248 39.8966 25.4944 39.5578 25.456Z" fill="#343434"/>
</svg>
