<svg width="48" height="49" viewBox="0 0 48 49" fill="none" xmlns="http://www.w3.org/2000/svg">
<g clip-path="url(#clip0_62_78)">
<path d="M47.5 24.8721C47.5 37.8508 36.9787 48.3721 24 48.3721C11.0213 48.3721 0.5 37.8508 0.5 24.8721C0.5 11.8934 11.0213 1.37207 24 1.37207C36.9787 1.37207 47.5 11.8934 47.5 24.8721Z" stroke="#E97730"/>
<mask id="mask0_62_78" style="mask-type:alpha" maskUnits="userSpaceOnUse" x="0" y="0" width="48" height="49">
<path d="M47.5 24.8721C47.5 37.8508 36.9787 48.3721 24 48.3721C11.0213 48.3721 0.5 37.8508 0.5 24.8721C0.5 11.8934 11.0213 1.37207 24 1.37207C36.9787 1.37207 47.5 11.8934 47.5 24.8721Z" fill="#FFA40B" stroke="#E97730"/>
</mask>
<g mask="url(#mask0_62_78)">
<path d="M11.5 17.7921V31.9641L18.586 24.8781L11.5 17.7921ZM12.908 16.3721L21.879 25.3431C23.012 26.4761 24.988 26.4761 26.121 25.3431L35.092 16.3721H12.908Z" fill="#E97730"/>
<path d="M27.535 26.757C26.592 27.701 25.336 28.222 24 28.222C22.664 28.222 21.408 27.701 20.465 26.757L20 26.292L12.92 33.372H35.08L28 26.292L27.535 26.757ZM29.414 24.878L36.5 31.964V17.792L29.414 24.878Z" fill="#E97730"/>
</g>
</g>
<defs>
<clipPath id="clip0_62_78">
<rect width="48" height="48" fill="white" transform="translate(0 0.87207)"/>
</clipPath>
</defs>
</svg>
