<svg width="48" height="49" viewBox="0 0 48 49" fill="none" xmlns="http://www.w3.org/2000/svg">
<g clip-path="url(#clip0_62_58)">
<path d="M47.5 24.3721C47.5 37.3508 36.9787 47.8721 24 47.8721C11.0213 47.8721 0.5 37.3508 0.5 24.3721C0.5 11.3934 11.0213 0.87207 24 0.87207C36.9787 0.87207 47.5 11.3934 47.5 24.3721Z" stroke="#E97730"/>
<path d="M18.406 10.364C18.2904 10.3974 18.1886 10.467 18.1155 10.5626C18.0424 10.6582 18.0019 10.7747 18 10.895V14.708C18 15.461 18.395 16.128 19 16.52V19.427C19.121 21.159 19.789 22.37 20.719 23.114C20.609 23.974 20.241 24.47 19.625 24.927C18.897 25.467 17.837 25.887 16.719 26.364C15.601 26.842 14.413 27.416 13.5 28.427C12.587 29.437 12 30.853 12 32.8951V33.2701L12.313 33.3951C15.175 34.6381 16.621 35.275 17.343 35.583C17.705 35.737 17.867 35.823 17.969 35.864C18.019 35.884 18.039 35.8791 18.094 35.8951C18.107 35.8951 18.129 35.922 18.156 35.927H18.187C18.27 35.96 18.444 36.033 18.781 36.177C19.485 36.477 20.884 37.072 23.719 38.302L23.938 38.3951L24.156 38.302C25.8397 37.5843 27.5274 36.876 29.219 36.177C29.572 36.031 29.752 35.9301 29.844 35.8951H29.875C29.929 35.8851 29.978 35.871 30 35.865C30.043 35.85 30.044 35.853 30.094 35.833C30.194 35.792 30.396 35.705 30.75 35.552C31.458 35.245 32.87 34.6231 35.688 33.3951L36 33.2701V32.8951C36 30.9021 35.407 29.4981 34.5 28.5201C33.593 27.5431 32.417 27.018 31.312 26.552C30.208 26.085 29.155 25.669 28.437 25.114C27.733 24.57 27.327 23.943 27.312 22.739C28.284 21.936 28.958 20.807 29 19.427V14.552C29 12.806 27.678 11.364 26 11.364H20C19.657 11.364 19.374 11.308 19.25 11.239C19.126 11.17 19.094 11.159 19.094 10.895C19.097 10.56 18.73 10.277 18.406 10.365V10.364ZM24 24.95C24.809 24.95 25.465 25.606 25.465 26.415C25.464 26.815 25.301 27.215 25.021 27.487C25.021 27.487 24.658 27.6651 24.814 28.2491L26 34.879L24 35.879L22.04 34.869L23.246 28.2491C23.403 27.7651 23.055 27.515 23.031 27.487C22.8757 27.3549 22.751 27.1906 22.6653 27.0055C22.5797 26.8204 22.5352 26.619 22.535 26.415C22.535 25.606 23.191 24.95 24 24.95V24.95Z" fill="#E97730"/>
</g>
<defs>
<clipPath id="clip0_62_58">
<rect width="48" height="48" fill="white" transform="translate(0 0.37207)"/>
</clipPath>
</defs>
</svg>
