<svg width="73" height="73" viewBox="0 0 73 73" fill="none" xmlns="http://www.w3.org/2000/svg">
<circle cx="36.5" cy="36.7578" r="36" fill="#F7F7F7"/>
<path fill-rule="evenodd" clip-rule="evenodd" d="M32.2999 24.8775L31.8718 24.1363C31.7585 23.9403 31.5115 23.8699 31.3022 23.925C31.5115 23.8701 31.7584 23.9405 31.8713 24.1364L32.7826 25.7143L36.9277 32.8931C36.9282 32.8941 36.9282 32.8951 36.9287 32.8956C37.0157 33.0483 37.0157 33.2351 36.9277 33.3873L36.4998 34.129L33.1789 39.8812L32.6081 40.8695L30.0162 45.3591L27.6956 49.3792C27.6071 49.5324 27.4431 49.6263 27.2666 49.6263C27.0902 49.6263 26.9271 49.5324 26.8387 49.3792L21.7833 40.622C21.6949 40.4688 21.6949 40.281 21.7833 40.1278L31.0154 24.1364C31.0225 24.1241 31.0301 24.1123 31.0382 24.101C31.1299 23.9688 31.2814 23.8892 31.4439 23.8892H41.5556C41.732 23.8892 41.8951 23.9831 41.9836 24.1363L51.2155 40.1256C51.1273 39.9737 50.9644 39.8806 50.7887 39.8806H49.9323L41.2705 24.8775H32.2999ZM32.2999 24.8775L32.7831 25.7142L32.2998 24.8775H32.2999ZM34.7606 31.1172L31.4434 25.3723L22.782 40.3754L27.2671 48.1447L31.8951 40.1278L35.9285 33.1412L35.9289 33.1408L34.7606 31.1172ZM36.9277 33.3876L36.4998 34.1294L39.8205 39.8813H39.8201H33.1789L32.6081 40.8697H40.6765H49.9323L45.4467 48.638H28.1235L30.0162 45.3592L27.6956 49.3793C27.6071 49.5325 27.4441 49.6264 27.2676 49.6264H45.7324C45.9088 49.6264 46.0724 49.5325 46.1603 49.3793L51.2167 40.6221C51.3051 40.4689 51.3051 40.2811 51.2167 40.1279C51.1282 39.9747 50.9652 39.8813 50.7887 39.8813H49.9328H40.962L36.9292 32.8964C37.0157 33.0486 37.0157 33.2354 36.9277 33.3876Z" fill="#E97730"/>
<path d="M31.8718 24.1363L32.3048 23.8862L32.3047 23.886L31.8718 24.1363ZM31.3022 23.925L31.1748 23.4415L31.4292 24.4086L31.3022 23.925ZM31.8713 24.1364L31.4382 24.3862L31.4384 24.3864L31.8713 24.1364ZM32.7826 25.7143L33.2156 25.4643L33.2156 25.4642L32.7826 25.7143ZM36.9277 32.8931L37.3749 32.6695L37.3682 32.6561L37.3607 32.6431L36.9277 32.8931ZM36.9287 32.8956L37.3632 32.6481L37.3298 32.5896L37.2822 32.542L36.9287 32.8956ZM36.9277 33.3873L36.4948 33.1371L36.4946 33.1374L36.9277 33.3873ZM36.4998 34.129L36.9328 34.379L36.9328 34.3789L36.4998 34.129ZM33.1789 39.8812L33.6119 40.1312L33.6119 40.1312L33.1789 39.8812ZM32.6081 40.8695L32.1752 40.6195L32.1751 40.6195L32.6081 40.8695ZM30.0162 45.3591L29.5832 45.1091L29.5832 45.1091L30.0162 45.3591ZM27.6956 49.3792L28.1286 49.6292L28.1286 49.6291L27.6956 49.3792ZM26.8387 49.3792L26.4057 49.6292L26.4057 49.6292L26.8387 49.3792ZM21.7833 40.622L22.2163 40.372L22.2163 40.3719L21.7833 40.622ZM21.7833 40.1278L22.2163 40.3778L22.2163 40.3778L21.7833 40.1278ZM31.0154 24.1364L31.4485 24.3864L31.4486 24.3862L31.0154 24.1364ZM31.0382 24.101L31.4447 24.3923L31.4491 24.3859L31.0382 24.101ZM41.9836 24.1363L42.4166 23.8863L42.4166 23.8863L41.9836 24.1363ZM51.2155 40.1256L50.7831 40.3767L51.6485 39.8756L51.2155 40.1256ZM49.9323 39.8806L49.4993 40.1306L49.6437 40.3806H49.9323V39.8806ZM41.2705 24.8775L41.7035 24.6275L41.5592 24.3775H41.2705V24.8775ZM32.7831 25.7142L32.3501 25.9643L33.2161 25.4641L32.7831 25.7142ZM32.2998 24.8775V24.3775H31.4335L31.8668 25.1276L32.2998 24.8775ZM31.4434 25.3723L31.8764 25.1223L31.4433 24.3723L31.0104 25.1223L31.4434 25.3723ZM34.7606 31.1172L35.1936 30.8672L35.1936 30.8672L34.7606 31.1172ZM22.782 40.3754L22.349 40.1254L22.2047 40.3754L22.349 40.6253L22.782 40.3754ZM27.2671 48.1447L26.8341 48.3947L27.2671 49.1448L27.7002 48.3947L27.2671 48.1447ZM31.8951 40.1278L31.462 39.8778L31.462 39.8778L31.8951 40.1278ZM35.9285 33.1412L35.5749 32.7876L35.5284 32.8342L35.4955 32.8912L35.9285 33.1412ZM35.9289 33.1408L36.2824 33.4944L36.5537 33.2231L36.3619 32.8908L35.9289 33.1408ZM36.4998 34.1294L36.0667 33.8795L35.9225 34.1294L36.0667 34.3793L36.4998 34.1294ZM36.9277 33.3876L36.4948 33.1374L36.4946 33.1377L36.9277 33.3876ZM39.8205 39.8813V40.3813H40.6865L40.2535 39.6313L39.8205 39.8813ZM33.1789 39.8813V39.3813H32.8903L32.7459 39.6313L33.1789 39.8813ZM32.6081 40.8697L32.1752 40.6196L31.742 41.3697H32.6081V40.8697ZM49.9323 40.8697L50.3653 41.1197L50.7984 40.3697H49.9323V40.8697ZM45.4467 48.638V49.138H45.7354L45.8797 48.8881L45.4467 48.638ZM28.1235 48.638L27.6905 48.3881L27.2576 49.138H28.1235V48.638ZM30.0162 45.3592L30.4492 45.6092L29.5832 45.1092L30.0162 45.3592ZM27.6956 49.3793L28.1286 49.6293L28.1286 49.6293L27.6956 49.3793ZM46.1603 49.3793L45.7273 49.1293L45.7267 49.1303L46.1603 49.3793ZM51.2167 40.6221L50.7837 40.3721L50.7837 40.3721L51.2167 40.6221ZM51.2167 40.1279L51.6497 39.8779L51.6497 39.8779L51.2167 40.1279ZM40.962 39.8813L40.529 40.1313L40.6733 40.3813H40.962V39.8813ZM36.9292 32.8964L37.3622 32.6464L36.4945 33.1434L36.9292 32.8964ZM31.4388 24.3863L31.8669 25.1276L32.7329 24.6275L32.3048 23.8862L31.4388 24.3863ZM31.4296 24.4085C31.4335 24.4075 31.4393 24.4067 31.446 24.4069C31.4527 24.4071 31.4576 24.4083 31.46 24.4092C31.4622 24.4099 31.4602 24.4096 31.4555 24.4059C31.4503 24.4019 31.444 24.3953 31.439 24.3866L32.3047 23.886C32.0534 23.4515 31.5495 23.3428 31.1748 23.4415L31.4296 24.4085ZM32.3045 23.8866C32.0536 23.4516 31.5495 23.3432 31.1752 23.4414L31.4292 24.4086C31.4332 24.4076 31.439 24.4068 31.4457 24.407C31.4525 24.4072 31.4573 24.4084 31.4597 24.4093C31.4619 24.41 31.4598 24.4097 31.455 24.4059C31.4497 24.4018 31.4433 24.395 31.4382 24.3862L32.3045 23.8866ZM33.2156 25.4642L32.3043 23.8863L31.4384 24.3864L32.3496 25.9643L33.2156 25.4642ZM37.3607 32.6431L33.2156 25.4643L32.3496 25.9643L36.4947 33.1431L37.3607 32.6431ZM37.2822 32.542C37.3411 32.6009 37.3718 32.661 37.3869 32.6957C37.4011 32.7282 37.4085 32.7556 37.4089 32.7571C37.412 32.7677 37.4074 32.7512 37.4038 32.7403C37.3988 32.7248 37.3898 32.6993 37.3749 32.6695L36.4805 33.1167C36.4658 33.0874 36.457 33.0624 36.4522 33.0474C36.4488 33.0369 36.4443 33.0209 36.4475 33.032C36.448 33.0339 36.4556 33.0617 36.4699 33.0946C36.4851 33.1296 36.5161 33.19 36.5751 33.2491L37.2822 32.542ZM37.3606 33.6375C37.5381 33.3303 37.5374 32.9541 37.3632 32.6481L36.4942 33.143C36.4942 33.1431 36.4941 33.1428 36.494 33.1424C36.4939 33.1419 36.4938 33.1414 36.4938 33.1409C36.4938 33.1396 36.4942 33.1381 36.4948 33.1371L37.3606 33.6375ZM36.9328 34.3789L37.3608 33.6371L36.4946 33.1374L36.0667 33.8792L36.9328 34.3789ZM33.6119 40.1312L36.9328 34.379L36.0667 33.879L32.7459 39.6312L33.6119 40.1312ZM33.0411 41.1196L33.6119 40.1312L32.7459 39.6311L32.1752 40.6195L33.0411 41.1196ZM30.4492 45.6091L33.0412 41.1195L32.1751 40.6195L29.5832 45.1091L30.4492 45.6091ZM28.1286 49.6291L30.4492 45.6091L29.5832 45.1091L27.2626 49.1292L28.1286 49.6291ZM27.2666 50.1263C27.6203 50.1263 27.9501 49.9382 28.1286 49.6292L27.2626 49.1292C27.2641 49.1265 27.2658 49.1263 27.2666 49.1263V50.1263ZM26.4057 49.6292C26.5836 49.9373 26.9118 50.1263 27.2666 50.1263V49.1263C27.2686 49.1263 27.2707 49.1275 27.2717 49.1292L26.4057 49.6292ZM21.3503 40.8719L26.4057 49.6292L27.2717 49.1292L22.2163 40.372L21.3503 40.8719ZM21.3503 39.8778C21.1725 40.1857 21.1725 40.5641 21.3503 40.872L22.2163 40.3719C22.2166 40.3724 22.217 40.3735 22.217 40.3749C22.217 40.3762 22.2166 40.3774 22.2163 40.3778L21.3503 39.8778ZM30.5824 23.8864L21.3503 39.8778L22.2163 40.3778L31.4485 24.3864L30.5824 23.8864ZM30.6318 23.8098C30.6142 23.8344 30.5976 23.86 30.5823 23.8866L31.4486 24.3862C31.4474 24.3882 31.4461 24.3903 31.4447 24.3922L30.6318 23.8098ZM31.4439 23.3892C31.1178 23.3892 30.8126 23.5489 30.6273 23.8161L31.4491 24.3859C31.4472 24.3887 31.4451 24.3892 31.4439 24.3892V23.3892ZM41.5556 23.3892H31.4439V24.3892H41.5556V23.3892ZM42.4166 23.8863C42.2387 23.5782 41.9104 23.3892 41.5556 23.3892V24.3892C41.5536 24.3892 41.5516 24.388 41.5506 24.3863L42.4166 23.8863ZM51.6485 39.8756L42.4166 23.8863L41.5506 24.3863L50.7825 40.3757L51.6485 39.8756ZM50.7887 40.3806C50.7875 40.3806 50.785 40.38 50.7831 40.3767L51.6479 39.8746C51.4695 39.5673 51.1412 39.3806 50.7887 39.3806V40.3806ZM49.9323 40.3806H50.7887V39.3806H49.9323V40.3806ZM40.8375 25.1275L49.4993 40.1306L50.3653 39.6306L41.7035 24.6275L40.8375 25.1275ZM32.2999 25.3775H41.2705V24.3775H32.2999V25.3775ZM33.2161 25.4641L32.7329 24.6275L31.8669 25.1276L32.3501 25.9642L33.2161 25.4641ZM31.8668 25.1276L32.3501 25.9643L33.216 25.4641L32.7327 24.6274L31.8668 25.1276ZM32.2999 24.3775H32.2998V25.3775H32.2999V24.3775ZM31.0104 25.6223L34.3276 31.3673L35.1936 30.8672L31.8764 25.1223L31.0104 25.6223ZM23.2151 40.6253L31.8764 25.6223L31.0104 25.1223L22.349 40.1254L23.2151 40.6253ZM27.7002 47.8948L23.2151 40.1254L22.349 40.6253L26.8341 48.3947L27.7002 47.8948ZM31.462 39.8778L26.8341 47.8948L27.7002 48.3947L32.3281 40.3778L31.462 39.8778ZM35.4955 32.8912L31.462 39.8778L32.3281 40.3778L36.3615 33.3912L35.4955 32.8912ZM35.5753 32.7873L35.5749 32.7876L36.282 33.4947L36.2824 33.4944L35.5753 32.7873ZM36.3619 32.8908L35.1936 30.8672L34.3276 31.3672L35.4958 33.3908L36.3619 32.8908ZM36.9328 34.3792L37.3608 33.6375L36.4946 33.1377L36.0667 33.8795L36.9328 34.3792ZM40.2535 39.6313L36.9328 33.8794L36.0667 34.3793L39.3875 40.1313L40.2535 39.6313ZM39.8201 40.3813H39.8205V39.3813H39.8201V40.3813ZM33.1789 40.3813H39.8201V39.3813H33.1789V40.3813ZM33.0411 41.1197L33.6119 40.1314L32.7459 39.6313L32.1752 40.6196L33.0411 41.1197ZM40.6765 40.3697H32.6081V41.3697H40.6765V40.3697ZM49.9323 40.3697H40.6765V41.3697H49.9323V40.3697ZM45.8797 48.8881L50.3653 41.1197L49.4993 40.6196L45.0137 48.388L45.8797 48.8881ZM28.1235 49.138H45.4467V48.138H28.1235V49.138ZM29.5832 45.1093L27.6905 48.3881L28.5566 48.888L30.4492 45.6092L29.5832 45.1093ZM28.1286 49.6293L30.4492 45.6092L29.5832 45.1092L27.2626 49.1293L28.1286 49.6293ZM27.2676 50.1264C27.6224 50.1264 27.9507 49.9374 28.1286 49.6293L27.2626 49.1293C27.2636 49.1276 27.2657 49.1264 27.2676 49.1264V50.1264ZM45.7324 49.1264H27.2676V50.1264H45.7324V49.1264ZM45.7267 49.1303C45.7286 49.127 45.7312 49.1264 45.7324 49.1264V50.1264C46.0864 50.1264 46.4161 49.938 46.5939 49.6283L45.7267 49.1303ZM50.7837 40.3721L45.7273 49.1293L46.5933 49.6293L51.6497 40.8721L50.7837 40.3721ZM50.7837 40.3779C50.7834 40.3775 50.783 40.3764 50.783 40.375C50.783 40.3736 50.7834 40.3725 50.7837 40.3721L51.6497 40.8721C51.8275 40.5642 51.8275 40.1858 51.6497 39.8779L50.7837 40.3779ZM50.7887 40.3813C50.7877 40.3813 50.7851 40.3805 50.7837 40.3779L51.6497 39.8779C51.4713 39.569 51.1426 39.3813 50.7887 39.3813V40.3813ZM49.9328 40.3813H50.7887V39.3813H49.9328V40.3813ZM40.962 40.3813H49.9328V39.3813H40.962V40.3813ZM36.4962 33.1464L40.529 40.1313L41.395 39.6313L37.3622 32.6464L36.4962 33.1464ZM37.3606 33.6378C37.5379 33.3309 37.5375 32.9549 37.3639 32.6494L36.4945 33.1434C36.4938 33.1423 36.4934 33.1399 36.4948 33.1374L37.3606 33.6378Z" fill="#E97730"/>
</svg>
