<svg width="77" height="77" viewBox="0 0 77 77" fill="none" xmlns="http://www.w3.org/2000/svg">
<g clip-path="url(#clip0_51_6)">
<path d="M74.7109 52.1112H70.6734V51.6362C70.3172 50.0925 69.6047 48.5487 68.7734 47.1237L68.5359 46.7675L71.3859 43.9175C71.6234 43.68 71.6234 43.3237 71.3859 43.0862L67.1109 38.8112C66.9922 38.6925 66.8734 38.5737 66.6359 38.5737C66.5172 38.5737 66.2797 38.6925 66.2797 38.6925L63.4297 41.6612L63.0734 41.4237C61.6484 40.5925 60.2234 39.9987 58.5609 39.5237L58.0859 39.405V35.3675C58.0859 35.0112 57.8484 34.7737 57.4922 34.7737H51.4359C51.0797 34.7737 50.8422 35.0112 50.8422 35.3675V39.405L50.3672 39.5237C48.8234 39.88 47.2797 40.5925 45.8547 41.4237L45.6172 41.6612L42.7672 38.8112C42.6484 38.6925 42.5297 38.6925 42.2922 38.6925C42.1734 38.6925 41.9359 38.8112 41.8172 38.8112L37.5422 43.0862C37.3047 43.3237 37.3047 43.68 37.5422 43.9175L40.3922 46.7675L40.1547 47.1237C39.3234 48.5487 38.7297 49.9737 38.2547 51.6362L38.1359 52.1112H34.0984C33.7422 52.1112 33.5047 52.3487 33.5047 52.705V58.7612C33.5047 59.1175 33.7422 59.355 34.0984 59.355H38.1359L38.2547 59.83C38.6109 61.3737 39.3234 62.9175 40.1547 64.3425L40.3922 64.6987L37.5422 67.5487C37.3047 67.7862 37.3047 68.1425 37.5422 68.38L41.8172 72.655C41.9359 72.7737 42.0547 72.7737 42.2922 72.7737C42.4109 72.7737 42.6484 72.7737 42.7672 72.655L45.6172 69.805L45.9734 70.0425C47.3984 70.8737 48.8234 71.4675 50.4859 71.9425L50.9609 72.0612V76.0987C50.9609 76.455 51.1984 76.6925 51.5547 76.6925H57.4922C57.8484 76.6925 58.0859 76.455 58.0859 76.0987V72.0612L58.5609 71.9425C60.1047 71.5862 61.6484 70.8737 63.0734 70.1612L63.4297 69.9237L66.2797 72.7737C66.3984 72.8925 66.5172 72.8925 66.6359 72.8925C66.7547 72.8925 66.9922 72.8925 66.9922 72.7737L71.2672 68.4987C71.5047 68.2612 71.5047 67.905 71.2672 67.6675L68.5359 64.6987L68.7734 64.3425C69.6047 62.9175 70.1984 61.4925 70.6734 59.83L70.7922 59.355H74.8297C75.1859 59.355 75.4234 59.1175 75.4234 58.7612V52.705C75.3047 52.3487 75.0672 52.1112 74.7109 52.1112ZM54.5234 65.6487C49.0609 65.6487 44.6672 61.255 44.6672 55.7925C44.6672 50.33 49.0609 45.9362 54.5234 45.9362C59.9859 45.9362 64.3797 50.33 64.3797 55.7925C64.3797 61.255 59.9859 65.6487 54.5234 65.6487Z" fill="#FBBC04"/>
<path opacity="0.8" d="M36.5922 35.8425C36.7109 35.8425 36.8297 35.8425 36.9484 35.7237C37.0672 35.605 37.1859 35.4862 37.1859 35.3675L38.4922 30.2612C38.6109 29.905 38.3734 29.6675 38.0172 29.5487L34.6922 28.7175V28.2425C34.6922 26.9362 34.4547 25.63 34.0984 24.3237L33.9797 23.8487L36.8297 22.0675C37.0672 21.9487 37.1859 21.5925 37.0672 21.2362L34.4547 17.08C34.3359 16.9612 34.2172 16.8425 34.0984 16.8425H33.9797C33.8609 16.8425 33.7422 16.8425 33.6234 16.9612L30.7734 18.7425L30.4172 18.3862C29.4672 17.4362 28.3984 16.7237 27.2109 16.0112L26.8547 15.7737L27.6859 12.5675C27.6859 12.4487 27.6859 12.2112 27.5672 12.0925C27.4484 11.9737 27.3297 11.855 27.2109 11.855L22.1047 10.5487H21.9859C21.8672 10.5487 21.7484 10.5487 21.7484 10.6675C21.6297 10.7862 21.5109 10.905 21.5109 11.0237L20.6797 14.3487H20.2047C18.8984 14.3487 17.5922 14.5862 16.2859 14.9425L15.8109 15.0612L14.2672 11.9737C14.1484 11.7362 13.9109 11.7362 13.7922 11.7362C13.6734 11.7362 13.5547 11.7362 13.4359 11.855L8.92344 14.4675C8.80469 14.5862 8.68594 14.705 8.68594 14.8237V15.2987L10.4672 18.1487L10.1109 18.505C9.16094 19.455 8.44844 20.5237 7.73594 21.5925L7.49844 21.9487L4.17344 21.1175H4.05469C3.93594 21.1175 3.81719 21.1175 3.69844 21.2362C3.57969 21.355 3.46094 21.4737 3.46094 21.5925L2.39219 26.6987C2.27344 27.055 2.51094 27.2925 2.86719 27.4112L6.19219 28.2425V28.7175C6.19219 30.0237 6.42969 31.33 6.78594 32.6362L6.90469 33.1112L4.05469 34.8925C3.93594 35.0112 3.81719 35.13 3.81719 35.2487C3.81719 35.3675 3.81719 35.605 3.93594 35.7237L6.54844 40.2362C6.66719 40.4737 6.90469 40.4737 7.02344 40.4737C7.14219 40.4737 7.26094 40.4737 7.37969 40.355L10.2297 38.5737L10.5859 38.93C11.5359 39.88 12.6047 40.5925 13.6734 41.305L14.0297 41.5425L13.0797 44.63C13.0797 44.7487 13.0797 44.9862 13.1984 45.105C13.3172 45.2237 13.4359 45.3425 13.5547 45.3425L18.6609 46.6487H18.7797C18.8984 46.6487 19.0172 46.6487 19.0172 46.53C19.1359 46.4112 19.2547 46.2925 19.2547 46.1737L20.0859 42.8487H20.5609C21.8672 42.8487 23.1734 42.6112 24.4797 42.255L24.9547 42.1362L26.7359 44.9862C26.8547 45.105 26.9734 45.2237 27.2109 45.2237C27.3297 45.2237 27.4484 45.2237 27.5672 45.105L32.0797 42.3737C32.3172 42.255 32.4359 41.8987 32.3172 41.5425L30.5359 38.6925L30.8922 38.3362C31.8422 37.3862 32.5547 36.3175 33.2672 35.2487L33.5047 34.8925L36.8297 35.7237C36.4734 35.8425 36.5922 35.8425 36.5922 35.8425ZM27.6859 30.38C27.2109 32.28 26.0234 33.9425 24.2422 35.0112C23.0547 35.7237 21.7484 36.08 20.3234 36.08C19.7297 36.08 19.1359 35.9612 18.4234 35.8425C16.4047 35.3675 14.8609 34.18 13.7922 32.3987C12.8422 30.6175 12.6047 28.5987 13.0797 26.6987C13.5547 24.7987 14.7422 23.1362 16.5234 22.0675C17.7109 21.355 19.0172 20.9987 20.4422 20.9987C23.0547 20.9987 25.5484 22.4237 26.9734 24.68C27.9234 26.3425 28.2797 28.48 27.6859 30.38Z" fill="#FBBC04"/>
<path opacity="0.6" d="M45.8547 21.2362C45.8547 21.355 45.9734 21.5925 46.0922 21.5925C46.2109 21.5925 46.3297 21.7112 46.4484 21.7112H46.5672L49.1797 21.1175L49.4172 21.4737C49.7734 22.1862 50.3672 22.8987 50.9609 23.4925L51.1984 23.8487L49.7734 26.105C49.6547 26.2237 49.6547 26.3425 49.6547 26.58C49.6547 26.6987 49.7734 26.8175 49.8922 26.9362L53.9297 29.3112C54.0484 29.3112 54.1672 29.43 54.1672 29.43H54.2859C54.4047 29.43 54.5234 29.3112 54.6422 29.1925L56.0672 26.9362L56.5422 27.055C57.3734 27.2925 58.2047 27.4112 59.0359 27.4112H59.5109L60.1047 30.0237C60.1047 30.1425 60.2234 30.38 60.3422 30.38C60.4609 30.38 60.5797 30.4987 60.6984 30.4987H60.8172L65.3297 29.43C65.6859 29.3112 65.8047 29.0737 65.8047 28.7175L65.2109 26.105L65.5672 25.8675C66.2797 25.3925 66.9922 24.9175 67.7047 24.3237L68.0609 24.0862L70.3172 25.5112C70.4359 25.5112 70.5547 25.63 70.6734 25.63H70.7922C70.9109 25.63 71.0297 25.5112 71.1484 25.3925L73.5234 21.355C73.6422 21.2362 73.6422 21.1175 73.6422 20.88C73.6422 20.7612 73.5234 20.6425 73.4047 20.5237L71.1484 19.0987L71.2672 18.6237C71.5047 17.7925 71.6234 16.9612 71.6234 16.13V15.655L74.2359 15.0612C74.3547 15.0612 74.4734 14.9425 74.5922 14.8237C74.7109 14.705 74.7109 14.5862 74.7109 14.3487L73.6422 9.83623C73.6422 9.59873 73.4047 9.36123 73.0484 9.36123H72.9297L70.3172 9.95498L70.0797 9.59873C69.6047 8.88623 69.1297 8.17373 68.5359 7.46123L68.2984 7.10498L69.7234 4.84873C69.8422 4.72998 69.8422 4.61123 69.8422 4.37373C69.6047 4.25498 69.4859 4.13623 69.3672 4.13623L65.4484 1.76123C65.3297 1.64248 65.2109 1.64248 65.0922 1.64248H64.9734C64.8547 1.64248 64.7359 1.76123 64.6172 1.87998L63.1922 4.13623L62.7172 4.01748C61.8859 3.77998 61.0547 3.66123 60.1047 3.66123H59.6297L59.0359 1.04873C59.0359 0.81123 58.7984 0.57373 58.4422 0.57373H58.3234L53.8109 1.64248C53.4547 1.76123 53.3359 1.99873 53.3359 2.35498L53.9297 4.96748L53.5734 5.20498C52.8609 5.56123 52.1484 6.15498 51.5547 6.74873L51.1984 7.10498L48.9422 5.67998C48.8234 5.67998 48.7047 5.56123 48.5859 5.56123H48.4672C48.3484 5.56123 48.2297 5.67998 48.1109 5.79873L45.7359 9.83623V10.1925C45.7359 10.3112 45.8547 10.43 45.9734 10.5487L48.2297 11.9737V12.4487C47.9922 13.28 47.8734 14.1112 47.8734 14.9425V15.4175L45.1422 16.0112C44.7859 16.13 44.6672 16.3675 44.6672 16.7237L45.8547 21.2362ZM54.7609 12.4487C55.5922 11.1425 56.8984 10.1925 58.3234 9.83623C58.7984 9.71748 59.2734 9.71748 59.7484 9.71748C60.8172 9.71748 61.8859 9.95498 62.7172 10.5487C64.0234 11.38 64.9734 12.6862 65.3297 14.1112V14.23C65.6859 15.655 65.4484 17.1987 64.6172 18.505C63.7859 19.8112 62.4797 20.7612 61.0547 21.1175C60.5797 21.2362 60.1047 21.2362 59.6297 21.2362C56.8984 21.2362 54.6422 19.455 53.9297 16.8425C53.6922 15.4175 53.9297 13.755 54.7609 12.4487Z" fill="#FBBC04"/>
</g>
<defs>
<clipPath id="clip0_51_6">
<rect width="76" height="76" fill="white" transform="translate(0.492188 0.57373)"/>
</clipPath>
</defs>
</svg>
