<svg width="77" height="77" viewBox="0 0 77 77" fill="none" xmlns="http://www.w3.org/2000/svg">
<path d="M73.6422 25.63L68.6547 2.05811C68.5953 1.76123 68.4172 1.58311 68.2391 1.52373C68.1203 1.40498 67.8828 1.34561 67.5266 1.40498C67.4078 1.40498 67.3484 1.46436 67.2297 1.52373L46.6859 13.8144C46.2703 14.0519 46.0922 14.6456 46.3891 15.0612C46.5078 15.2394 46.6266 15.3581 46.8047 15.4175L52.4453 17.8519L51.3172 20.7612C50.9609 21.7706 42.3516 43.68 8.03281 43.68C6.72656 43.68 5.30156 43.6206 3.93594 43.5612H3.75781C3.63906 43.5612 3.57969 43.6206 3.46094 43.68C3.40156 43.7394 3.34219 43.8581 3.34219 43.9769C3.34219 44.155 3.46094 44.3331 3.63906 44.3925L3.75781 44.4519C11.1797 46.9456 18.8984 48.2519 26.7359 48.3706C55.0578 48.3706 65.2109 27.2925 65.3297 27.055L66.6953 24.1456L72.4547 26.6394C72.6922 26.7581 72.9891 26.6987 73.1078 26.6394C73.2859 26.58 73.4641 26.4612 73.5828 26.1644C73.7016 25.9862 73.7016 25.8081 73.6422 25.63Z" fill="#EA4335"/>
<path opacity="0.6" d="M7.37968 75.8019H22.1641V54.3675C17.1766 54.0112 12.2484 53.2394 7.37968 51.9925V75.8019V75.8019Z" fill="#EA4335"/>
<path d="M54.8203 46.8269V75.8019H69.6047V32.1612H69.5453C67.4078 35.5456 62.7172 41.78 54.8203 46.8269Z" fill="#EA4335"/>
<path opacity="0.8" d="M31.0703 75.8019H45.8547V51.28C41.5797 52.8831 36.7109 54.0112 31.0703 54.4269V75.8019Z" fill="#EA4335"/>
</svg>
